<ttFont>
<head>
    <!-- Most of this table will be recalculated by the compiler -->
    <tableVersion value="1.0"/>
    <fontRevision value="2.004"/>
    <checkSumAdjustment value="0xc806f87"/>
    <magicNumber value="0x5f0f3cf5"/>
    <flags value="00000000 00000011"/>
    <unitsPerEm value="1000"/>
    <created value="Thu Oct  8 10:03:11 2009"/>
    <modified value="Thu Oct  8 10:03:11 2009"/>
    <xMin value="-473"/>
    <yMin value="-307"/>
    <xMax value="1494"/>
    <yMax value="1021"/>
    <macStyle value="00000000 00000011"/>
    <lowestRecPPEM value="3"/>
    <fontDirectionHint value="2"/>
    <indexToLocFormat value="0"/>
    <glyphDataFormat value="0"/>
  </head>
          <CharString index="0">
            hintmask 01100000
            513 39 rmoveto
            36 6 -29 2 -18 hhcurveto
            -28 -11 2 3 -6 hvcurveto
            34 204 rlineto
            74 12 -41 85 -141 hhcurveto
            -44 -103 -3 -77 -13 hvcurveto
            -35 -6 22 -18 28 hhcurveto
            19 33 11 42 8 hvcurveto
            0 24 3 20 62 40 -24 -58 -5 vhcurveto
            -177 -4 -116 -59 -15 -90 rrcurveto
            hintmask 10000000
            -72 -12 53 -67 100 hhcurveto
            61 50 17 17 31 hvcurveto
            hintmask 01000000
            -24 18 40 -4 41 hhcurveto
            32 24 2 37 7 -31 callgsubr
            hintmask 10000000
            -15 -34 -39 0 -7 hhcurveto
            -52 -30 29 33 5 hvcurveto
            7 40 64 33 140 5 rrcurveto
            return
          </CharString>
          <CharString index="1">
            hstemhm
            -107 callsubr
            return
          </CharString>
          <CharString index="2">
            459 115 rmoveto
            35 6 -35 1 -8 hhcurveto
            -19 -12 -3 -24 -13 hvcurveto
            -43 -25 -45 -10 -28 hhcurveto
            -66 -55 45 70 -5 hvcurveto
            269 hlineto
            26 22 0 44 7 hvcurveto
            121 21 -52 94 -125 hhcurveto
            -120 -110 -103 -121 -20 hvcurveto
            -126 -21 83 -101 127 hhcurveto
            131 63 94 27 4 hvcurveto
            -62 146 rmoveto
            -228 hlineto
            63 25 58 44 57 hhcurveto
            43 49 -21 -86 -4 hvcurveto
            return
          </CharString>
          <CharString index="3">
            rmoveto
            25 5 -14 36 -60 hhcurveto
            -11 -48 -1 -31 -50 hvcurveto
            11 -16 -30 16 -43 hhcurveto
            -96 -86 -77 -87 -15 hvcurveto
            -6 -41 9 -32 11 -20 rrcurveto
            hintmask 1111010010000000
            -13 -16 -10 -21 -5 -29 -5 -30 6 -23 6 -14 -76 -46 -11 -66 -2 -11 rrcurveto
            -87 -14 94 -64 130 hhcurveto
            130 116 65 86 14 hvcurveto
            hintmask 1110001001000000
            7 39 -10 52 -48 28 rrcurveto
            7 -12 -38 22 -90 hhcurveto
            -68 hlineto
            -8 -12 0 2 -7 hvcurveto
            hintmask 1110100000000000
            -13 -5 0 10 -7 hvcurveto
            hintmask 1110010000000000
            -6 11 2 19 0 vvcurveto
            hintmask 1110100100000000
            0 1 8 3 6 vhcurveto
            -8 14 28 -12 37 hhcurveto
            94 87 74 91 15 hvcurveto
            5 28 -2 27 -11 26 15 6 14 3 11 1 rrcurveto
            hintmask 1110000001000000
            -25 4 23 -7 11 hhcurveto
            20 31 14 35 5 hvcurveto
            -211 -108 rmoveto
            -50 -8 -46 -40 -46 hhcurveto
            -48 -30 42 47 8 hvcurveto
            50 9 45 39 46 hhcurveto
            hintmask 1111000100000000
            48 30 -41 -47 -8 hvcurveto
            47 -349 rmoveto
            -40 -7 -76 -36 -91 hhcurveto
            -91 -64 36 40 7 hvcurveto
            3 16 12 27 31 18 rrcurveto
            14 25 9 0 68 hhcurveto
            hintmask 1110000010000000
            82 105 0 -75 -13 hvcurveto
            return
          </CharString>
          <CharString index="4">
            -87 callgsubr
            -139 -58 -18 -7 -14 123 callgsubr
            -10 -1 3 135 callsubr
            7 16 2 13 rlinecurve
            endchar
          </CharString>
          <CharString index="5">
            811 241 rmoveto
            37 6 -29 2 -19 hhcurveto
            -187 hlineto
            -18 -30 -2 -36 -6 hvcurveto
            -38 -6 254 callgsubr
            75 hlineto
            -82 -36 -90 -55 -96 hhcurveto
            -147 -102 108 131 22 274 callsubr
            136 109 153 hhcurveto
            50 46 -12 -20 31 hvcurveto
            47 -31 4 -38 2 -25 rrcurveto
            -29 2 23 0 11 hhcurveto
            42 5 24 24 4 hvcurveto
            23 135 rlineto
            20 3 3 29 -36 hhcurveto
            -23 -9 -11 -18 -11 hvcurveto
            -5 -8 -5 -6 -8 -13 rrcurveto
            30 -38 -66 26 -89 hhcurveto
            -200 -174 -148 -168 -28 hvcurveto
            -175 -29 132 -142 191 hhcurveto
            99 77 40 35 46 hvcurveto
            -3 -15 175 callsubr
            42 hhcurveto
            41 5 26 23 4 hvcurveto
            26 154 rlineto
            22 -49 callsubr
            return
          </CharString>
          <CharString index="6">
            hlineto
            196 callsubr
            -37 -6 29 -1 19 hhcurveto
            return
          </CharString>
          <CharString index="7">
            -1 -38 -7 -75 callgsubr
            return
          </CharString>
          <CharString index="8">
            rmoveto
            -92 callgsubr
            28 29 5 hvcurveto
            endchar
          </CharString>
          <CharString index="9">
            rmoveto
            18 3 -11 20 -21 hhcurveto
            -4 -4 0 -2 -6 hvcurveto
            -108 -31 -98 31 rlineto
            2 -4 -4 0 -4 hhcurveto
            -22 -18 -20 -19 -3 hvcurveto
            -2 -14 5 -14 16 -6 107 -42 rcurveline
            8 -2 9 0 8 2 121 42 rcurveline
            20 7 10 14 2 14 rrcurveto
            endchar
          </CharString>
          <CharString index="10">
            rlineto
            -43 -101 callsubr
            return
          </CharString>
          <CharString index="11">
            rmoveto
            28 4 -18 9 callgsubr
            -25 -78 callsubr
            197 hmoveto
            28 4 -18 9 callgsubr
            -25 -78 callsubr
            return
          </CharString>
          <CharString index="12">
            38 7 -28 1 -20 hhcurveto
            return
          </CharString>
          <CharString index="13">
            594 397 -42 callgsubr
            -137 27 callsubr
            28 hlineto
            -127 -257 -58 257 rlineto
            24 222 callgsubr
            -18 -31 -1 -37 -7 hvcurveto
            -37 -6 121 callsubr
            34 hlineto
            85 -350 -40 -77 rlineto
            -31 -20 -32 -46 -66 hhcurveto
            0 1 4 2 8 vhcurveto
            33 5 -21 18 -27 hhcurveto
            -32 -22 -21 -30 -5 hvcurveto
            -46 -8 35 -42 61 hhcurveto
            94 76 83 63 32 hvcurveto
            221 434 rlineto
            33 -44 callsubr
            return
          </CharString>
          <CharString index="14">
            hlineto
            -102 callgsubr
            return
          </CharString>
          <CharString index="15">
            98 callsubr
            -4 -31 33 -8 -3 -8 -4 111 callgsubr
            62 46 72 12 hvcurveto
            endchar
          </CharString>
          <CharString index="16">
            404 130 rmoveto
            18 107 -117 24 -32 6 -68 13 -49 9 6 33 rrcurveto
            27 4 32 19 64 hhcurveto
            64 0 -31 -17 -1 hvcurveto
            -17 -1 -1 -22 38 hhcurveto
            42 5 24 24 4 hvcurveto
            11 67 rlineto
            20 3 3 29 -36 hhcurveto
            -18 -10 -9 -7 -6 hvcurveto
            12 -23 -30 4 -29 hhcurveto
            -148 -38 -84 -39 -6 hvcurveto
            -16 -94 106 -22 37 -8 8 -2 41 -7 8 -1 28 -7 36 -16 -6 -35 rrcurveto
            -59 -10 -83 0 -12 hhcurveto
            -67 -10 45 38 -4 hvcurveto
            14 -1 -2 17 -33 hhcurveto
            -42 -5 96 callgsubr
            -16 -93 rlineto
            -20 -3 -3 -29 36 hhcurveto
            21 15 16 12 7 hvcurveto
            return
          </CharString>
          <CharString index="17">
            67 callgsubr
            hintmask 1000001000010000
            -71 callgsubr
            hintmask 0100000100100000
            -82 callsubr
            hintmask 0100000010000000
            -176 hlineto
            hintmask 0010000001001000
            -77 callsubr
            hintmask 0010000010000000
            -500 hlineto
            hintmask 0000010000000000
            196 callsubr
            hintmask 0010000100000000
            -36 -6 30 -2 18 hhcurveto
            hintmask 0010000001000000
            43 hlineto
            hintmask 1000001000000000
            -71 callsubr
            hintmask 0001100000000000
            return
          </CharString>
          <CharString index="18">
            444 373 rmoveto
            31 5 -20 38 -55 hhcurveto
            -45 -40 -19 -27 -34 hvcurveto
            31 3 -5 9 -38 hhcurveto
            -81 hlineto
            -19 -29 206 callsubr
            -19 -29 -1 -38 -7 hvcurveto
            -37 -6 30 -1 18 hhcurveto
            195 -68 callgsubr
            -67 hlineto
            19 114 13 78 43 80 68 14 rlinecurve
            -34 27 -6 14 26 27 18 32 5 vhcurveto
            return
          </CharString>
          <CharString index="19">
            0 callgsubr
            52 311 rlineto
            36 95 callsubr
            -81 hlineto
            -18 24 callsubr
            19 hhcurveto
            44 hlineto
            -33 -198 rlineto
            return
          </CharString>
          <CharString index="20">
            rmoveto
            20 4 -15 19 -21 hhcurveto
            -6 -6 -2 -4 -7 hvcurveto
            -106 -58 -86 58 rlineto
            4 -5 -6 2 -6 hhcurveto
            -21 -21 -19 -20 -4 hvcurveto
            -1 -11 3 -12 11 -8 103 -72 rcurveline
            10 -7 18 0 12 7 127 72 rcurveline
            15 8 7 12 1 11 rrcurveto
            endchar
          </CharString>
          <CharString index="21" raw="1">
            8c0a85f6 0a899f6d 730b 
          </CharString>
          <CharString index="22">
            12 callgsubr
            212 85 -2 85 -16 85 cntrmask 1110000000000000
            hintmask 1110000101000000
            770 100 rmoveto
            38 6 -31 1 -12 hhcurveto
            -15 -23 0 -37 -10 hvcurveto
            -24 -6 -17 -12 -17 hhcurveto
            -44 8 46 53 9 hvcurveto
            9 55 2 16 -15 31 -9 16 -12 13 -15 10 rrcurveto
            hintmask 1110100010000000
            -85 callgsubr
            hintmask 1110100101000000
            32 190 rlineto
            130 hlineto
            54 42 -11 -10 19 hvcurveto
            31 -20 -2 -12 -9 -53 -10 -61 -5 -27 21 -36 rrcurveto
            -29 16 34 -19 43 hhcurveto
            75 54 61 50 9 hvcurveto
            -154 339 rmoveto
            -58 -9 -105 -37 -99 hhcurveto
            -123 hlineto
            hintmask 1110010010000000
            32 190 rlineto
            123 hlineto
            99 92 -37 -58 -10 hvcurveto
            return
          </CharString>
          <CharString index="23">
            rmoveto
            28 4 -19 9 callgsubr
            -24 -78 callsubr
            167 hmoveto
            28 4 -19 9 callgsubr
            -24 -27 -26 -4 hvcurveto
            return
          </CharString>
          <CharString index="24">
            113 callsubr
            48 -79 callgsubr
            -181 14 callsubr
            48 hlineto
            return
          </CharString>
          <CharString index="25">
            33 201 rlineto
            176 hlineto
            -41 -6 2 -15 38 hhcurveto
            40 5 26 23 4 hvcurveto
            15 90 95 callgsubr
            -40 hhcurveto
            -38 -7 -15 -40 -7 hvcurveto
            return
          </CharString>
          <CharString index="26">
            rlineto
            -44 -75 callsubr
            return
          </CharString>
          <CharString index="27">
            -19 -103 callgsubr
            18 hhcurveto
            return
          </CharString>
          <CharString index="28">
            799 397 rmoveto
            38 7 -31 1 -18 hhcurveto
            -131 76 callgsubr
            121 callsubr
            31 hlineto
            -113 -259 -32 296 rlineto
            20 -3 -2 20 -40 hhcurveto
            -35 -12 -12 -29 -13 hvcurveto
            -132 -302 -29 266 rlineto
            31 64 callsubr
            -31 -1 -37 -7 hvcurveto
            -37 -6 121 callsubr
            25 hlineto
            34 -322 rlineto
            -40 4 20 -1 31 hhcurveto
            23 22 2 22 15 hvcurveto
            128 303 21 -273 rlineto
            -42 4 2 -12 48 hhcurveto
            28 21 1 39 17 hvcurveto
            143 323 rlineto
            25 -49 callsubr
            return
          </CharString>
          <CharString index="29">
            -27 -26 -4 hvcurveto
            -29 -5 20 -23 28 hhcurveto
            33 24 25 27 5 hvcurveto
            return
          </CharString>
          <CharString index="30">
            161 callgsubr
            335 193 callgsubr
            -6 12 -40 hhcurveto
            return
          </CharString>
          <CharString index="31">
            hlineto
            19 -84 callgsubr
            return
          </CharString>
          <CharString index="32">
            hlineto
            -19 -28 -1 -38 -69 callgsubr
            -1 18 hhcurveto
            return
          </CharString>
          <CharString index="33">
            rmoveto
            39 6 -26 1 -20 hhcurveto
            -290 240 callsubr
            289 hlineto
            19 29 2 -15 callgsubr
            endchar
          </CharString>
          <CharString index="34">
            748 38 rmoveto
            232 callsubr
            -31 hlineto
            -195 277 252 180 rlineto
            36 112 callgsubr
            -30 1 -18 hhcurveto
            -141 246 callgsubr
            -37 -6 hvcurveto
            -5 -28 12 -8 25 -2 -354 -253 rcurveline
            42 252 rlineto
            44 112 callgsubr
            -29 1 -19 hhcurveto
            -159 -51 callgsubr
            19 112 168 120 164 -233 -30 -1 -17 -7 -5 -30 rlinecurve
            -29 callsubr
            122 -49 callsubr
            return
          </CharString>
          <CharString index="35">
            821 217 callsubr
            -31 1 -18 hhcurveto
            -151 170 callsubr
            121 callsubr
            5 hlineto
            -187 -206 -118 206 rlineto
            5 hlineto
            19 30 33 callsubr
            -151 118 callsubr
            -37 -7 121 callsubr
            42 hlineto
            return
          </CharString>
          <CharString index="36">
            -76 -457 rlineto
            -43 -34 callgsubr
            528 hlineto
            39 11 11 38 6 hvcurveto
            return
          </CharString>
          <CharString index="37">
            2 36 -60 callgsubr
            return
          </CharString>
          <CharString index="38">
            38 7 -24 callgsubr
            return
          </CharString>
          <CharString index="39">
            36 callgsubr
            hintmask 00000100
            14 -12 1 callgsubr
            hintmask 00001000
            -17 callgsubr
            hintmask 00100000
            -20 -4 16 150 callgsubr
            9 hvcurveto
            hintmask 00000100
            21 callsubr
            hintmask 00100000
            -62 callsubr
            hintmask 00010000
            23 16 35 55 callsubr
          </CharString>
          <CharString index="40">
            rmoveto
            -95 callsubr
            return
          </CharString>
          <CharString index="41">
            hhcurveto
            -80 -93 callsubr
            return
          </CharString>
          <CharString index="42">
            -58 callsubr
            -172 hlineto
            return
          </CharString>
          <CharString index="43">
            -61 callgsubr
            hintmask 0001000000000000
            return
          </CharString>
          <CharString index="44">
            178 rmoveto
            11 68 -44 56 -61 27 73 29 45 47 8 53 rrcurveto
            83 14 -72 81 -121 hhcurveto
            -122 -99 -82 -82 -14 hvcurveto
            -8 -53 30 -48 61 -28 rrcurveto
            hintmask 11010100
            -71 -27 -61 -56 -11 -68 rrcurveto
            -99 -17 79 -90 127 hhcurveto
            128 108 90 99 17 hvcurveto
            -53 279 rmoveto
            -52 -8 -63 -38 -66 hhcurveto
            hintmask 10101010
            -66 -49 39 51 8 hvcurveto
            46 8 58 42 71 hhcurveto
            70 45 -42 -46 -8 hvcurveto
            -32 -278 rmoveto
            -63 -11 -69 -50 -75 hhcurveto
            hintmask 01010100
            -75 -53 50 63 11 hvcurveto
            55 9 62 56 83 hhcurveto
            84 43 -56 -55 -9 hvcurveto
            endchar
          </CharString>
          <CharString index="45">
            -14 12 18 -22 36 hhcurveto
            28 32 16 18 27 hvcurveto
            return
          </CharString>
          <CharString index="46">
            hlineto
            177 callgsubr
            return
          </CharString>
          <CharString index="47">
            52 callsubr
            hintmask 0000010000000000
            -13 -8 -5 -8 -10 hvcurveto
            hintmask 0001000000000000
            -17 callsubr
            hintmask 0000001000000000
            14 -12 1 callgsubr
            hintmask 0000010000000000
            -17 callgsubr
            hintmask 0001000000000000
            112 callsubr
            hintmask 0000100000000000
            54 callgsubr
            hintmask 0000001000000000
            21 callsubr
            hintmask 0001000000000000
            -62 callsubr
            hintmask 0000100000000000
            23 16 35 55 callsubr
          </CharString>
          <CharString index="48">
            800 492 rmoveto
            12 70 53 callgsubr
            -582 hlineto
            -40 -11 -9 -40 -6 hvcurveto
            -5 callsubr
            7 42 266 callgsubr
            return
          </CharString>
          <CharString index="49">
            43 -79 callgsubr
            return
          </CharString>
          <CharString index="50">
            808 305 rmoveto
            13 77 -17 94 -81 73 68 76 rcurveline
            16 18 1 12 0 vvcurveto
            25 4 -19 14 -17 hhcurveto
            -8 -13 0 -23 -19 hvcurveto
            -73 -83 rlineto
            8 -21 -68 26 -62 hhcurveto
            -198 -176 -147 -169 -28 hvcurveto
            -13 -77 17 -94 81 -73 -64 -71 rcurveline
            -19 -22 -1 -4 -1 -9 rrcurveto
            -25 -5 20 -14 17 hhcurveto
            11 9 2 19 18 hvcurveto
            75 85 rlineto
            -13 25 53 -21 73 200 callsubr
            -204 220 rmoveto
            -357 -402 -46 39 -34 65 13 78 rlinecurve
            131 22 140 109 155 hhcurveto
            46 33 -10 -10 28 hvcurveto
            134 -219 rmoveto
            -131 -22 -140 -109 -155 hhcurveto
            -46 -33 10 10 -28 hvcurveto
            356 402 46 -36 35 -66 -13 -80 rlinecurve
            return
          </CharString>
          <CharString index="51">
            -29 callgsubr
            19 29 1 37 6 hvcurveto
            return
          </CharString>
          <CharString index="52">
            459 115 rmoveto
            35 6 -35 1 -8 hhcurveto
            -19 -12 -3 -24 -13 hvcurveto
            -12 -7 -27 -41 -63 hhcurveto
            -78 -55 64 84 14 hvcurveto
            44 7 43 105 124 hhcurveto
            50 hlineto
            -41 -5 19 -15 28 hhcurveto
            28 27 20 33 6 hvcurveto
            76 13 -106 4 -47 hhcurveto
            -174 -83 -138 -88 -14 hvcurveto
            return
          </CharString>
          <CharString index="53">
            572 534 rmoveto
            25 4 -22 13 -15 hhcurveto
            -20 -10 -12 -11 -7 hvcurveto
            -89 -119 rlineto
            6 -17 -25 9 -35 hhcurveto
            -122 -115 -103 -123 -20 hvcurveto
            -10 -57 10 -64 48 -50 -79 -105 rcurveline
            -9 -13 -13 -19 -1 -9 rrcurveto
            -25 -5 22 -13 15 hhcurveto
            20 11 13 10 7 hvcurveto
            91 121 rlineto
            -12 30 28 -2 17 hhcurveto
            119 118 99 126 21 hvcurveto
            10 65 -19 60 -39 45 89 120 rcurveline
            10 14 2 8 3 vvcurveto
            -211 -171 rmoveto
            -186 -249 -28 36 -2 39 5 30 rlinecurve
            82 13 78 67 80 hhcurveto
            21 8 -1 -4 11 hvcurveto
            87 -144 rmoveto
            -83 -14 -78 -65 -80 hhcurveto
            -19 -8 1 3 -10 hvcurveto
            184 248 26 -33 4 -41 -5 -30 rlinecurve
            return
          </CharString>
          <CharString index="54">
            15 90 95 callgsubr
            -41 hhcurveto
            -38 -6 -15 -40 -8 hvcurveto
            -125 hlineto
            161 callgsubr
            242 hlineto
            182 callgsubr
            4 25 24 4 hvcurveto
            224 callsubr
            -491 246 callgsubr
            -38 -7 hvcurveto
            -36 -6 31 -2 17 hhcurveto
            3 hlineto
            -276 -457 rlineto
            -40 hlineto
            -18 -30 -2 234 callgsubr
            29 -1 19 hhcurveto
            155 65 callgsubr
            -23 hlineto
            61 101 rlineto
            188 hlineto
            -17 -101 rlineto
            -20 hlineto
            -19 -30 -2 -37 -7 hvcurveto
            -36 -6 121 callsubr
            412 hlineto
            39 10 11 38 6 hvcurveto
            -406 206 rmoveto
            -155 hlineto
            169 279 rlineto
            32 hlineto
            return
          </CharString>
          <CharString index="55">
            rmoveto
            24 4 -12 15 -25 hhcurveto
            -30 -8 -20 -15 -6 hvcurveto
            -12 -6 -62 0 -37 hhcurveto
            159 callgsubr
            endchar
          </CharString>
          <CharString index="56">
            rlineto
            -65 callsubr
            return
          </CharString>
          <CharString index="57">
            543 38 rmoveto
            37 7 -30 2 -18 hhcurveto
            -30 hlineto
            -115 178 135 104 rlineto
            35 112 callgsubr
            -30 1 -18 hhcurveto
            -160 hlineto
            -80 callsubr
            16 hlineto
            -157 -121 54 324 53 callgsubr
            -68 -28 callgsubr
            -40 callgsubr
            159 -61 callsubr
            11 65 85 66 85 -131 rlineto
            -1 -28 callsubr
            123 53 callsubr
            return
          </CharString>
          <CharString index="58">
            hlineto
            18 -9 callsubr
            return
          </CharString>
          <CharString index="59">
            172 callsubr
            -6 -3 -11 -14 73 callsubr
            217 callgsubr
            5 2 11 15 hvcurveto
            77 54 13 10 12 8 3 19 rlinecurve
            return
          </CharString>
          <CharString index="60">
            3 -13 hhcurveto
            -24 -22 -18 -25 -4 hvcurveto
            -3 -19 return
          </CharString>
          <CharString index="61">
            -22 rlinecurve
            -10 -2 4 -38 31 hhcurveto
            8 return
          </CharString>
          <CharString index="62">
            21 hhcurveto
            24 22 -6 -13 -2 hvcurveto
            75 hmoveto
            35 6 -48 32 -68 hhcurveto
            -73 -55 -33 -34 -6 hvcurveto
            -35 -6 48 -32 68 hhcurveto
            73 return
          </CharString>
          <CharString index="63">
            hlineto
            -27 callgsubr
            return
          </CharString>
          <CharString index="64">
            433 49 rmoveto
            10 56 rlineto
            23 3 4 25 -41 hhcurveto
            -42 -4 -24 -24 264 callgsubr
            -191 hlineto
            317 292 4 7 3 12 1 5 rlinecurve
            42 7 -24 1 -24 hhcurveto
            -285 hlineto
            -39 -12 -9 -39 -6 hvcurveto
            -8 -45 -82 callgsubr
            3 16 rlineto
            return
          </CharString>
          <CharString index="65">
            4 callsubr
            28 165 rlineto
            37 -62 callgsubr
            return
          </CharString>
          <CharString index="66">
            hintmask 00110000
            513 39 rmoveto
            36 6 -29 2 -18 hhcurveto
            -28 -11 2 3 -6 hvcurveto
            34 204 rlineto
            74 12 -41 85 -141 hhcurveto
            -44 -103 -3 -77 -13 hvcurveto
            -35 -6 22 -18 28 hhcurveto
            19 33 11 42 8 hvcurveto
            0 24 3 20 62 40 -24 -58 -5 vhcurveto
            -177 -4 -116 -59 -15 -90 rrcurveto
            return
          </CharString>
          <CharString index="67">
            577 573 rmoveto
            36 6 -30 2 -19 hhcurveto
            -175 hlineto
            -19 -30 269 callgsubr
            70 hlineto
            -65 -389 rlineto
            -75 -12 -73 -4 -17 hhcurveto
            -7 -38 0 18 -23 hvcurveto
            4 5 3 7 2 12 rrcurveto
            28 5 233 callsubr
            -29 -17 -37 -6 hvcurveto
            -65 -11 58 -51 103 hhcurveto
            91 93 56 94 15 hvcurveto
            66 395 rlineto
            20 hlineto
            20 29 212 callgsubr
            return
          </CharString>
          <CharString index="68">
            -84 -14 111 -4 68 hhcurveto
            68 113 4 84 14 hvcurveto
            return
          </CharString>
          <CharString index="69">
            -80 callsubr
            44 hlineto
            -54 -325 return
          </CharString>
          <CharString index="70">
            -23 callsubr
            hintmask 00100100
            113 callsubr
            67 112 callgsubr
            -29 1 -19 hhcurveto
            -195 hlineto
            hintmask 00110000
            -102 callgsubr
            return
          </CharString>
          <CharString index="71">
            63 10 -27 34 -39 hhcurveto
            -33 -28 -27 -31 -6 hvcurveto
            -1 -6 -7 -43 49 -7 -12 -36 -24 -19 -14 -9 -11 -7 -11 -8 -3 -18 rrcurveto
            -18 -3 15 -21 21 hhcurveto
            23 85 60 93 16 hvcurveto
            return
          </CharString>
          <CharString index="72">
            535 -11 77 -66 101 callgsubr
            -66 77 hstemhm
            114 80 368 85 -85 128 -115 190 callgsubr
            -85 86 9 85 -54 85 hintmask 0110001001010000
            1023 263 callsubr
            4 194 callgsubr
            -329 hlineto
            33 201 rlineto
            198 hlineto
            -41 -5 1 -15 38 hhcurveto
            41 5 26 23 4 hvcurveto
            hintmask 0010000010100000
            15 90 95 callgsubr
            -41 hhcurveto
            -38 -6 -15 -40 -8 hvcurveto
            -198 hlineto
            hintmask 0001000100001000
            161 callgsubr
            301 193 callgsubr
            -5 12 -41 hhcurveto
            -382 hlineto
            hintmask 1000110010000000
            -28 -56 7 0 hvcurveto
            -32 4 -27 0 0 vvcurveto
            -199 -175 222 callsubr
            19 49 5 4 43 hvcurveto
            hintmask 0100000000000000
            1 12 14 1 10 hhcurveto
            410 hlineto
            40 10 11 38 6 hvcurveto
            -461 257 rmoveto
            -18 -104 rlineto
            hintmask 1000111000000000
            -106 -19 -13 -30 -90 hhcurveto
            -165 -84 125 126 21 hvcurveto
            115 19 123 113 166 hhcurveto
            91 2 -30 -108 -17 hvcurveto
            endchar
          </CharString>
          <CharString index="73">
            25 callgsubr
            -7 28 143 callgsubr
            28 191 callgsubr
          </CharString>
          <CharString index="74">
            rmoveto
            103 17 -62 99 -119 hhcurveto
            -32 -40 -5 -17 -40 hvcurveto
            27 161 rlineto
            224 94 callgsubr
            -261 hlineto
            -39 -11 -11 -38 -6 hvcurveto
            -43 -258 rlineto
            -22 -4 -3 -27 39 hhcurveto
            22 5 6 12 12 hvcurveto
            30 30 39 16 54 hhcurveto
            74 29 -67 -59 -10 hvcurveto
            -73 -12 -74 -54 -77 hhcurveto
            -24 -54 6 45 return
          </CharString>
          <CharString index="75">
            -104 callsubr
            endchar
          </CharString>
          <CharString index="76">
            hstemhm
            hintmask 11100000
            -107 callgsubr
            hintmask 00010000
            return
          </CharString>
          <CharString index="77">
            rlineto
            -44 -39 callgsubr
            return
          </CharString>
          <CharString index="78">
            -37 -6 30 -1 18 hhcurveto
            return
          </CharString>
          <CharString index="79">
            hlineto
            -18 -63 callgsubr
            19 hhcurveto
            return
          </CharString>
          <CharString index="80">
            156 callgsubr
            49 -21 69 -20 99 -20 148 callsubr
            hintmask 0100000000000010
            75 callgsubr
            hintmask 0010010000000100
            11 callgsubr
            hintmask 0001000000001000
            85 callgsubr
            hintmask 1001000000110000
            -22 callsubr
            hintmask 0001000001000000
            -104 hlineto
            hintmask 0000000010000000
            -20 -20 -15 -21 -3 hvcurveto
            hintmask 0001000100000000
            118 callgsubr
            hintmask 1000000000100000
            42 callsubr
            hintmask 0100000000001000
            85 callsubr
            return
          </CharString>
          <CharString index="81">
            259 callsubr
            55 -20 113 -20 98 callgsubr
            hintmask 0101000000100000
            -11 callgsubr
            hintmask 0100000001000000
            108 callgsubr
            21 hhcurveto
            55 hlineto
            hintmask 1000000100010000
            13 callsubr
            hintmask 0100000010000000
            32 callsubr
            hintmask 0000001000000000
            -20 -18 -17 -19 -3 hvcurveto
            hintmask 0100010000000000
            108 callgsubr
            20 hhcurveto
            56 hlineto
            hintmask 1000000100010000
            14 callgsubr
            hintmask 0000000000001000
            131 callsubr
            hintmask 0010100000000000
            return
          </CharString>
          <CharString index="82">
            hintmask 0110000000000000
            513 39 rmoveto
            36 6 -29 2 -18 hhcurveto
            -28 -11 2 3 -6 hvcurveto
            34 204 rlineto
            74 12 -41 85 -141 hhcurveto
            -44 -103 -3 -77 -13 hvcurveto
            -35 -6 22 -18 28 hhcurveto
            19 33 11 42 8 hvcurveto
            0 24 3 20 62 40 -24 -58 -5 vhcurveto
            -177 -4 -116 -59 -15 -90 rrcurveto
            hintmask 1000000000000000
            -72 -12 53 -67 100 hhcurveto
            61 50 17 17 31 hvcurveto
            hintmask 0100000000000000
            -24 18 40 -4 41 hhcurveto
            32 24 2 37 7 -31 callgsubr
            return
          </CharString>
          <CharString index="83">
            196 rmoveto
            116 19 -75 90 -111 hhcurveto
            -46 -48 -13 -31 -46 hvcurveto
            118 39 93 69 77 hhcurveto
            21 12 -4 -4 7 hvcurveto
            -4 -6 -5 -8 -2 -13 rrcurveto
            -28 -5 17 -24 31 hhcurveto
            29 27 20 35 6 hvcurveto
            51 8 -26 58 -102 hhcurveto
            -134 -155 -121 -202 -34 hvcurveto
            -238 -40 103 -72 99 hhcurveto
            return
          </CharString>
          <CharString index="84">
            606 175 callgsubr
            24 4 3 25 -41 hhcurveto
            -42 -5 -24 -25 -4 hvcurveto
            -10 -58 rlineto
            -292 hlineto
            return
          </CharString>
          <CharString index="85">
            -1 -5 rlineto
            -19 -3 13 -17 20 hhcurveto
            55 hlineto
            -35 -207 rlineto
            -46 -7 -56 -33 -63 hhcurveto
            -33 -21 2 11 -15 hvcurveto
            -7 6 -3 11 2 14 48 283 rcurveline
            21 3 -14 15 -19 hhcurveto
            return
          </CharString>
          <CharString index="86">
            81 -68 81 -54 81 -67 80 hstemhm
            return
          </CharString>
          <CharString index="87">
            -65 callsubr
            -80 callsubr
            44 hlineto
            return
          </CharString>
          <CharString index="88">
            24 callgsubr
            -2 16 117 callsubr
            14 10 11 8 3 19 rlinecurve
            return
          </CharString>
          <CharString index="89">
            rlineto
            44 -44 callsubr
            return
          </CharString>
          <CharString index="90">
            -25 -31 -50 callgsubr
            return
          </CharString>
          <CharString index="91">
            18 -84 callgsubr
            return
          </CharString>
          <CharString index="92">
            -27 21 0 20 vhcurveto
            80 -76 callsubr
            return
          </CharString>
          <CharString index="93">
            5 25 24 4 hvcurveto
            return
          </CharString>
          <CharString index="94">
            hstemhm
            -41 callsubr
            hintmask 11000000
            -72 -12 53 -67 100 hhcurveto
            61 50 17 17 31 hvcurveto
            3 -4 4 -4 5 -3 -41 -27 -38 -43 -7 -43 rrcurveto
            -46 -8 29 -55 66 hhcurveto
            40 44 219 callsubr
            10 11 2 23 -11 14 -18 23 -21 -21 -40 -34 rrcurveto
            -5 -7 -7 -2 -7 hhcurveto
            -13 -19 11 18 3 hvcurveto
            5 32 32 37 39 24 rrcurveto
            hintmask 00100000
            5 9 4 0 12 hhcurveto
            31 24 3 36 6 -31 callgsubr
            hintmask 01000000
            -15 -34 -39 0 -7 hhcurveto
            -52 -30 29 33 5 hvcurveto
            7 40 64 33 140 5 rrcurveto
            return
          </CharString>
          <CharString index="95">
            16 callsubr
            204 hmoveto
            55 callgsubr
          </CharString>
          <CharString index="96">
            105 callsubr
            -6 3 3 -6 hvcurveto
            -120 57 -27 13 -1 16 2 136 callgsubr
            120 -58 return
          </CharString>
          <CharString index="97">
            14 -12 -18 30 callgsubr
            return
          </CharString>
          <CharString index="98">
            31 -36 callgsubr
            return
          </CharString>
          <CharString index="99">
            18 30 1 37 -48 callgsubr
            -44 hlineto
            return
          </CharString>
          <CharString index="100">
            -93 callgsubr
            62 211 rmoveto
            20 3 -15 220 callgsubr
            -32 -50 callgsubr
            hintmask 0000100010000000
            141 callsubr
            hintmask 0000010000000000
            128 callsubr
            hintmask 0000001000000000
            13 9 6 7 10 hvcurveto
            hintmask 0000000010000000
            40 callsubr
            hintmask 0000010000000000
            -62 callsubr
            hintmask 0000001000000000
            24 16 34 55 callsubr
          </CharString>
          <CharString index="101">
            115 rmoveto
            35 6 -35 1 -8 hhcurveto
            -18 -13 -3 -24 -13 hvcurveto
            -53 -30 -46 0 -10 hhcurveto
            -63 -56 44 71 -4 hvcurveto
            254 hlineto
            27 21 0 45 8 hvcurveto
            122 20 -50 92 -116 hhcurveto
            return
          </CharString>
          <CharString index="102">
            -12 -70 -82 callgsubr
            return
          </CharString>
          <CharString index="103">
            -6 29 -2 return
          </CharString>
          <CharString index="104">
            572 74 callgsubr
            81 485 53 callgsubr
            -80 246 callgsubr
            -37 188 callsubr
            43 hlineto
            -22 -132 rlineto
            28 -33 -41 12 -40 hhcurveto
            -124 -119 -99 -125 -21 hvcurveto
            return
          </CharString>
          <CharString index="105">
            rmoveto
            90 callsubr
            -56 -32 -55 -10 36 callsubr
            -7 -47 return
          </CharString>
          <CharString index="106">
            76 457 rlineto
            212 5 callsubr
            return
          </CharString>
          <CharString index="107">
            38 -67 callsubr
            -43 hlineto
            return
          </CharString>
          <CharString index="108">
            15 -25 hhcurveto
            -30 -8 -20 -15 return
          </CharString>
          <CharString index="109">
            1 -19 hhcurveto
            return
          </CharString>
          <CharString index="110">
            116 19 -57 82 -80 hhcurveto
            -81 -85 -85 -112 -18 hvcurveto
            -117 -20 57 -82 80 hhcurveto
            81 85 85 113 19 hvcurveto
            return
          </CharString>
          <CharString index="111">
            -57 callgsubr
            -16 -29 -42 hvcurveto
            return
          </CharString>
          <CharString index="112">
            hlineto
            -7 -42 -82 callgsubr
            return
          </CharString>
          <CharString index="113">
            214 188 callgsubr
            hstemhm
            226 44 346 83 -66 84 hintmask 10110100
            699 171 rmoveto
            10 62 -42 62 -91 26 64 23 67 44 10 64 rrcurveto
            82 14 -86 77 -135 hhcurveto
            -314 27 callsubr
            43 hlineto
            -76 -457 rlineto
            -43 -34 callgsubr
            341 hlineto
            hintmask 01101000
            138 111 84 87 15 hvcurveto
            -66 280 rmoveto
            -52 -8 -82 -43 -109 hhcurveto
            -152 hlineto
            30 178 rlineto
            184 hlineto
            hintmask 11010100
            87 58 -38 -45 -8 hvcurveto
            -17 -278 rmoveto
            -57 -10 -90 -39 -94 hhcurveto
            -186 hlineto
            34 202 rlineto
            201 hlineto
            hintmask 00001000
            91 63 -49 -57 -9 hvcurveto
            endchar
          </CharString>
          <CharString index="114">
            rmoveto
            -13 -2 -27 -6 -21 hhcurveto
            -24 -22 6 13 2 hvcurveto
            14 3 26 5 43 callsubr
            endchar
          </CharString>
          <CharString index="115">
            3 17 2 11 11 10 20 61 callgsubr
            6 28 rrcurveto
            endchar
          </CharString>
          <CharString index="116">
            178 rmoveto
            11 67 -33 57 -54 32 55 37 33 54 8 51 rrcurveto
            76 13 -61 70 -118 hhcurveto
            -123 -79 -52 -71 -12 hvcurveto
            -38 -6 26 -16 23 hhcurveto
            25 31 20 32 5 hvcurveto
            2 11 -2 8 -2 6 rrcurveto
            23 34 58 0 8 hhcurveto
            60 41 -30 -40 -7 hvcurveto
            -4 -27 -19 -31 -28 -20 rrcurveto
            hintmask 1100101100000000
            -33 -24 -23 -1 -33 -2 -65 -4 -15 -4 -5 -33 rrcurveto
            -37 -6 27 -2 19 hhcurveto
            45 hlineto
            90 37 -60 -52 -8 hvcurveto
            -56 -10 -60 -56 -83 hhcurveto
            -35 -66 8 39 -19 hvcurveto
            6 5 5 9 3 17 rrcurveto
            28 5 233 callsubr
            -29 -17 -37 -6 hvcurveto
            -91 -16 88 -61 125 hhcurveto
            133 102 94 95 16 hvcurveto
            endchar
          </CharString>
          <CharString index="117">
            3 rmoveto
            11 67 -33 57 -54 32 55 37 33 54 8 51 rrcurveto
            76 13 -61 70 -118 hhcurveto
            -123 -79 -52 -71 -12 hvcurveto
            -38 -6 26 -16 23 hhcurveto
            25 30 20 32 6 hvcurveto
            2 11 -2 8 -2 6 rrcurveto
            23 34 58 0 8 hhcurveto
            60 41 -30 -40 -7 hvcurveto
            -4 -27 -20 -31 -27 -20 rrcurveto
            hintmask 11000110
            -33 -24 -23 -1 -33 -2 -65 -4 -15 -4 -5 -33 rrcurveto
            -37 -6 27 -2 19 hhcurveto
            45 hlineto
            90 37 -60 -52 -8 hvcurveto
            -56 -10 -60 -56 -83 hhcurveto
            -35 -66 8 39 -19 hvcurveto
            5 5 6 9 3 17 rrcurveto
            28 4 233 callsubr
            -28 -17 -37 -7 hvcurveto
            -91 -15 88 -61 125 hhcurveto
            133 102 94 95 16 hvcurveto
            endchar
          </CharString>
          <CharString index="118">
            hstemhm
            hintmask 11000000
            -101 callgsubr
            hintmask 00100000
            return
          </CharString>
          <CharString index="119">
            26 -2 19 -11 -3 -17 rrcurveto
            -21 -3 -22 -9 -87 hhcurveto
            -36 -27 -3 -36 -6 hvcurveto
            -30 -5 23 -9 14 hhcurveto
            return
          </CharString>
          <CharString index="120">
            -54 -327 -6 -36 -21 -34 -30 -25 rlinecurve
            -31 -38 -43 -15 -41 hhcurveto
            -40 -36 13 26 -24 hvcurveto
            -28 29 -11 36 7 37 rrcurveto
            return
          </CharString>
          <CharString index="121">
            hlineto
            -20 -28 83 callsubr
            return
          </CharString>
          <CharString index="122">
            98 callsubr
            -5 -31 33 -8 -2 -8 -5 111 callgsubr
            63 46 72 12 hvcurveto
            endchar
          </CharString>
          <CharString index="123">
            17 rmoveto
            -36 callsubr
            return
          </CharString>
          <CharString index="124">
            185 0 77 161 77 219 77 120 callsubr
            394 83 hintmask 00110000
            712 424 rmoveto
            99 16 -90 88 -143 hhcurveto
            -300 -28 callgsubr
            hintmask 11101100
            72 callgsubr
            27 161 rlineto
            171 hlineto
            143 119 88 98 17 hvcurveto
            -83 hmoveto
            -59 -10 -88 -50 -101 hhcurveto
            -154 hlineto
            36 219 rlineto
            154 hlineto
            102 71 -50 -60 -10 hvcurveto
            endchar
          </CharString>
          <CharString index="125">
            110 115 86 121 20 hvcurveto
            -85 hmoveto
            -78 -13 -68 -52 -66 hhcurveto
            -59 -27 45 56 -9 hvcurveto
            -3 21 4 25 1 11 rrcurveto
            56 10 61 44 69 hhcurveto
            74 37 -61 -67 -11 hvcurveto
            endchar
          </CharString>
          <CharString index="126">
            hlineto
            -19 -29 -47 callgsubr
            return
          </CharString>
          <CharString index="127">
            -26 31 hhcurveto
            35 28 179 callsubr
            return
          </CharString>
          <CharString index="128">
            25 31 26 -33 callgsubr
            return
          </CharString>
          <CharString index="129">
            55 hhcurveto
            120 122 97 128 22 hvcurveto
            -83 hmoveto
            -86 -15 -79 -62 -77 hhcurveto
            -76 -28 77 50 8 hvcurveto
            11 65 rlineto
            57 9 71 45 63 hhcurveto
            80 45 -70 -76 -12 hvcurveto
            endchar
          </CharString>
          <CharString index="130">
            -8 65 -21 62 -34 55 52 54 42 63 29 65 rrcurveto
            20 9 -12 20 -20 hhcurveto
            -15 hlineto
            -14 -13 -9 -13 -7 hvcurveto
            -32 -67 -45 -61 -55 -51 -13 -12 -3 -18 9 -12 38 -51 25 -62 10 -66 rrcurveto
            -13 2 10 -9 14 hhcurveto
            15 hlineto
            20 18 20 20 -1 hvcurveto
            return
          </CharString>
          <CharString index="131">
            -29 2 callgsubr
            28 -2 return
          </CharString>
          <CharString index="132">
            rmoveto
            53 9 -24 20 -27 hhcurveto
            return
          </CharString>
          <CharString index="133">
            49 rmoveto
            4 25 rlineto
            23 4 3 25 -41 hhcurveto
            -38 -6 -17 -28 -6 hvcurveto
            -199 hlineto
            66 48 89 63 44 35 73 56 56 64 14 81 rrcurveto
            121 20 -89 77 -124 hhcurveto
            -120 -94 -85 -86 -15 hvcurveto
            -43 -7 31 -13 20 hhcurveto
            24 30 20 33 6 hvcurveto
            2 12 -2 13 -7 8 rrcurveto
            39 22 45 25 48 hhcurveto
            74 64 -41 -80 -13 hvcurveto
            -11 -66 -55 -54 -71 -52 -245 -180 rcurveline
            -13 -10 -8 -6 -2 -17 rrcurveto
            -38 -7 29 -1 20 hhcurveto
            329 202 callgsubr
          </CharString>
          <CharString index="134">
            hlineto
            -20 -28 -47 callgsubr
            return
          </CharString>
          <CharString index="135">
            76 457 rlineto
            44 117 callgsubr
            -172 hlineto
            return
          </CharString>
          <CharString index="136">
            40 callgsubr
            146 85 return
          </CharString>
          <CharString index="137">
            -19 rrcurveto
            hintmask 10000000
            -20 -3 155 callsubr
            hintmask 01000000
            54 callgsubr
            hintmask 00010000
            250 callgsubr
            hintmask 10000000
            -14 11 19 -22 36 hhcurveto
            28 31 16 18 27 hvcurveto
            hintmask 01000000
            24 16 34 55 callsubr
          </CharString>
          <CharString index="138">
            303 514 -96 callsubr
            return
          </CharString>
          <CharString index="139">
            54 327 rlineto
            56 hlineto
            20 19 16 20 3 hvcurveto
            1 5 rlineto
            19 3 -13 17 -20 hhcurveto
            -196 hlineto
            return
          </CharString>
          <CharString index="140">
            -36 callgsubr
            38 7 -31 1 -18 hhcurveto
            return
          </CharString>
          <CharString index="141">
            90 callgsubr
            hintmask 00000100
            -10 callsubr
            hintmask 00001000
            -17 callgsubr
            hintmask 00100000
            -20 -3 15 -20 20 hhcurveto
            hintmask 00010000
            18 callgsubr
          </CharString>
          <CharString index="142">
            38 -67 callsubr
            -67 hlineto
            53 321 rlineto
            39 7 -6 10 -40 hhcurveto
            -27 hlineto
            -28 -7 -2 -23 -18 hvcurveto
            -277 -335 -13 -15 0 -2 -4 -22 rlinecurve
            -40 -7 10 -8 37 hhcurveto
            236 hlineto
            -17 -99 rlineto
            -52 hlineto
            -19 -29 -1 -38 -6 213 callgsubr
            6 88 callgsubr
            -52 hlineto
            17 99 rlineto
            67 hlineto
            19 -14 callgsubr
            -181 39 rmoveto
            -191 hlineto
            239 288 rlineto
            endchar
          </CharString>
          <CharString index="143">
            hvcurveto
            -18 -3 10 -19 24 hhcurveto
            18 21 13 28 5 hvcurveto
            6 4 11 145 callsubr
            15 -4 -9 4 hvcurveto
            -49 -24 -41 -32 return
          </CharString>
          <CharString index="144">
            123 -96 callsubr
            return
          </CharString>
          <CharString index="145">
            170 365 rmoveto
            24 4 -12 15 -25 hhcurveto
            -30 -8 -20 -15 -6 hvcurveto
            -12 -6 -62 0 -37 hhcurveto
            159 callgsubr
            return
          </CharString>
          <CharString index="146">
            rmoveto
            76 12 -151 11 -73 hhcurveto
            -72 -157 -11 -76 -12 hvcurveto
            -21 -4 11 -18 28 hhcurveto
            29 0 18 13 32 hvcurveto
            10 46 55 5 31 hhcurveto
            34 49 -5 -10 42 hvcurveto
            -13 28 -6 -18 29 hhcurveto
            28 17 18 21 4 hvcurveto
            endchar
          </CharString>
          <CharString index="147">
            25 31 25 -33 callgsubr
            return
          </CharString>
          <CharString index="148">
            10 -222 75 0 76 0 75 hstemhm
            15 74 0 85 -77 73 -45 74 return
          </CharString>
          <CharString index="149">
            -41 -242 -6 -38 9 -36 29 -21 rlinecurve
            -21 29 36 -6 47 hhcurveto
            43 45 12 21 37 hvcurveto
            return
          </CharString>
          <CharString index="150">
            -45 callsubr
            56 33 34 5 hvcurveto
            return
          </CharString>
          <CharString index="151">
            rmoveto
            23 4 -9 9 -10 hhcurveto
            -13 -15 -8 -10 -9 hvcurveto
            -500 -554 -6 -8 -17 -18 -2 -10 rlinecurve
            -23 -4 11 -10 17 hhcurveto
            14 7 7 10 10 hvcurveto
            501 556 6 7 13 19 2 10 rlinecurve
            endchar
          </CharString>
          <CharString index="152">
            39 rmoveto
            23 3 -13 15 -30 hhcurveto
            -81 hlineto
            55 328 rlineto
            hintmask 00100000
            25 4 -10 17 -26 hhcurveto
            -12 -16 -10 -9 -14 hvcurveto
            hintmask 01000000
            -28 -17 -34 -3 -31 -3 rrcurveto
            -11 hlineto
            hintmask 00100000
            -23 -19 -12 -23 -5 hvcurveto
            -1 -3 rlineto
            hintmask 11010000
            -24 -4 13 -15 30 hhcurveto
            27 31 7 7 32 hvcurveto
            -44 -265 rlineto
            -82 hlineto
            -31 -17 -15 -23 -3 hvcurveto
            -30 -5 18 -9 25 hhcurveto
            253 hlineto
            27 18 15 24 4 hvcurveto
            endchar
          </CharString>
          <CharString index="153">
            -15 -24 -4 vhcurveto
            -84 -14 return
          </CharString>
          <CharString index="154">
            664 60 rmoveto
            35 28 -23 30 -9 10 -148 178 rcurveline
            208 178 11 10 33 30 -25 28 rlinecurve
            -23 30 -35 -28 -11 -10 -208 -178 rcurveline
            -148 178 -9 10 -25 28 -33 -30 rlinecurve
            -35 -28 23 -30 9 -10 148 -178 rcurveline
            -208 -178 -11 -10 -33 -30 25 -28 rlinecurve
            23 -30 35 28 11 10 208 178 rcurveline
            148 -178 9 -10 25 -28 33 30 rlinecurve
            return
          </CharString>
          <CharString index="155">
            -73 callgsubr
            -138 -58 -19 -7 -14 -7 -3 -46 callsubr
            6 3 3 8 hvcurveto
            138 57 31 13 7 16 2 13 rlinecurve
            endchar
          </CharString>
          <CharString index="156">
            -223 99 callsubr
            hstemhm
            89 94 -76 63 callsubr
            return
          </CharString>
          <CharString index="157">
            392 272 callgsubr
            hintmask 00010100
            15 -7 -18 1 -9 hhcurveto
            -41 -6 -26 -23 -4 hvcurveto
            hintmask 01001000
            -6 -41 rlineto
            -23 -4 -3 -25 41 hhcurveto
            hintmask 10101000
            38 6 17 28 6 hvcurveto
            228 hlineto
            -188 -177 -66 -208 -18 -105 rrcurveto
            -17 -3 -5 -38 42 hhcurveto
            20 23 13 35 6 hvcurveto
            46 272 179 167 68 57 26 20 3 3 2 16 rrcurveto
            endchar
          </CharString>
          <CharString index="158">
            -54 -9 -62 -75 -77 hhcurveto
            -76 -49 67 80 13 hvcurveto
            83 14 79 64 79 hhcurveto
            63 45 -48 -53 -9 hvcurveto
            return
          </CharString>
          <CharString index="159">
            rmoveto
            20 3 189 callsubr
            return
          </CharString>
          <CharString index="160">
            hlineto
            18 30 -36 callgsubr
            return
          </CharString>
          <CharString index="161">
            -27 -21 -20 -24 -4 hvcurveto
            return
          </CharString>
          <CharString index="162">
            25 3 19 rrcurveto
            endchar
          </CharString>
          <CharString index="163">
            572 272 callgsubr
            15 -7 -18 1 -9 hhcurveto
            -41 -6 -26 -23 -4 hvcurveto
            hintmask 11100000
            -6 -41 rlineto
            -23 -4 -3 -25 41 hhcurveto
            38 6 17 28 6 hvcurveto
            228 hlineto
            -188 -177 -66 -208 -18 -105 rrcurveto
            -17 -2 -6 -38 42 hhcurveto
            20 23 13 35 6 hvcurveto
            46 272 179 167 68 57 26 20 3 3 2 16 rrcurveto
            endchar
          </CharString>
          <CharString index="164">
            226 callsubr
            -53 -56 -32 -55 -9 hvcurveto
            return
          </CharString>
          <CharString index="165">
            -5 -6 80 callgsubr
            return
          </CharString>
          <CharString index="166">
            38 -67 callsubr
            -79 hlineto
            83 496 rlineto
            20 3 3 29 -36 hhcurveto
            -16 -7 -6 -14 -15 hvcurveto
            -30 -27 -41 -9 -25 -2 -37 -3 -21 -10 -5 -27 rrcurveto
            -38 -6 33 0 10 hhcurveto
            24 38 6 12 31 hvcurveto
            -71 -427 rlineto
            -79 -101 callsubr
            243 -76 callsubr
            endchar
          </CharString>
          <CharString index="167">
            47 282 rlineto
            198 hlineto
            -47 -282 rlineto
            -29 callgsubr
            return
          </CharString>
          <CharString index="168">
            6 4 11 145 callsubr
            16 246 callsubr
            return
          </CharString>
          <CharString index="169">
            -6 80 callsubr
            return
          </CharString>
          <CharString index="170">
            85 -76 85 hintmask 01100100
            -8 callgsubr
            hintmask 00101000
            -102 callgsubr
            hintmask 01000100
            -72 callgsubr
            171 -76 callsubr
            return
          </CharString>
          <CharString index="171">
            75 callsubr
            -131 hlineto
            -18 return
          </CharString>
          <CharString index="172">
            -69 callsubr
            -44 hlineto
            return
          </CharString>
          <CharString index="173">
            -13 -9 -5 -8 -9 hvcurveto
            return
          </CharString>
          <CharString index="174">
            184 callgsubr
            -28 -28 -29 return
          </CharString>
          <CharString index="175">
            136 callgsubr
            119 -58 16 -7 12 123 callgsubr
            endchar
          </CharString>
          <CharString index="176">
            -5 -7 -7 -2 -7 hhcurveto
            -13 -19 11 18 3 hvcurveto
            6 36 22 32 29 21 184 17 157 139 26 158 rrcurveto
            -83 12 rmoveto
            -137 -23 -135 -114 -148 hhcurveto
            -148 -97 115 136 23 hvcurveto
            124 21 134 104 147 hhcurveto
            147 100 -104 -124 -21 hvcurveto
            return
          </CharString>
          <CharString index="177">
            85 hintmask 01001001
            -37 callsubr
            return
          </CharString>
          <CharString index="178">
            -16 134 callgsubr
            -31 -26 -15 -12 hhcurveto
            -5 -7 8 10 -9 hvcurveto
            hintmask 00010000
            14 -11 -19 190 callsubr
            return
          </CharString>
          <CharString index="179">
            -33 -5 6 -11 39 hhcurveto
            81 -52 callgsubr
            -150 162 rmoveto
            return
          </CharString>
          <CharString index="180">
            20 callgsubr
            -3 return
          </CharString>
          <CharString index="181">
            110 663 rlineto
            14 3 4 41 -41 hhcurveto
            -41 -8 -41 -14 -3 hvcurveto
            -110 -663 rlineto
            -14 -3 -5 -41 41 hhcurveto
            41 9 41 14 3 hvcurveto
            return
          </CharString>
          <CharString index="182">
            hlineto
            18 31 33 callsubr
            return
          </CharString>
          <CharString index="183">
            rmoveto
            65 callsubr
            return
          </CharString>
          <CharString index="184">
            211 callsubr
            20 -20 hhcurveto
            return
          </CharString>
          <CharString index="185">
            0 81 callgsubr
            return
          </CharString>
          <CharString index="186">
            rlineto
            -44 hlineto
            -80 callsubr
            172 94 callgsubr
            -43 hlineto
            return
          </CharString>
          <CharString index="187">
            77 115 75 107 77 return
          </CharString>
          <CharString index="188">
            hvcurveto
            -7 -42 rlineto
            -32 hlineto
            -19 -29 -100 callsubr
            18 hhcurveto
            hintmask 01001000
            33 hlineto
            hintmask 10010000
            139 callsubr
            return
          </CharString>
          <CharString index="189">
            152 callsubr
            -42 85 183 102 callsubr
            return
          </CharString>
          <CharString index="190">
            -100 callsubr
            19 hhcurveto
            return
          </CharString>
          <CharString index="191">
            -6 77 -71 144 callsubr
            return
          </CharString>
          <CharString index="192">
            -15 1 13 -12 16 hhcurveto
            105 hlineto
            19 20 17 19 3 hvcurveto
            return
          </CharString>
          <CharString index="193">
            29 callgsubr
            0 245 callgsubr
            return
          </CharString>
          <CharString index="194">
            153 callgsubr
            457 77 return
          </CharString>
          <CharString index="195">
            163 callgsubr
            -72 1 rmoveto
            51 callgsubr
            return
          </CharString>
          <CharString index="196">
            -20 hstem
            39 callgsubr
            return
          </CharString>
          <CharString index="197">
            54 9 -42 33 -65 hhcurveto
            -53 return
          </CharString>
          <CharString index="198">
            -5 hvcurveto
            -31 -5 return
          </CharString>
          <CharString index="199">
            37 6 -5 12 -41 hhcurveto
            return
          </CharString>
          <CharString index="200">
            513 rmoveto
            84 14 -112 274 callgsubr
            -112 142 callgsubr
            8 20 15 6 hvcurveto
            12 6 62 0 37 hhcurveto
            38 61 0 -12 2 hvcurveto
            -15 2 -20 30 24 18 15 24 4 vhcurveto
            endchar
          </CharString>
          <CharString index="201">
            25 callsubr
            54 callsubr
            return
          </CharString>
          <CharString index="202">
            6 -6 12 -40 hhcurveto
            return
          </CharString>
          <CharString index="203">
            77 32 -21 callsubr
            return
          </CharString>
          <CharString index="204">
            -42 -248 rlineto
            -54 hlineto
            -16 -21 -2 -25 -4 hvcurveto
            -24 -4 21 -2 15 hhcurveto
            174 hlineto
            15 23 2 24 4 hvcurveto
            return
          </CharString>
          <CharString index="205">
            94 callsubr
            -1 -6 return
          </CharString>
          <CharString index="206">
            -185 -21 206 81 callgsubr
            return
          </CharString>
          <CharString index="207">
            -30 47 callgsubr
            return
          </CharString>
          <CharString index="208">
            -46 -8 29 -55 67 hhcurveto
            return
          </CharString>
          <CharString index="209">
            85 -76 85 -9 85 return
          </CharString>
          <CharString index="210">
            208 callgsubr
            -27 -28 -29 91 callsubr
            21 20 callsubr
            endchar
          </CharString>
          <CharString index="211">
            -70 -11 -48 -51 -40 hhcurveto
            -41 -29 52 68 11 hvcurveto
            71 12 48 51 40 hhcurveto
            41 29 -52 -69 -12 hvcurveto
            endchar
          </CharString>
          <CharString index="212">
            rmoveto
            -10 -2 -16 -38 -31 hhcurveto
            -8 return
          </CharString>
          <CharString index="213">
            rmoveto
            32 5 -21 26 -32 hhcurveto
            33 callgsubr
            return
          </CharString>
          <CharString index="214">
            hvcurveto
            -12 -6 -62 0 -37 hhcurveto
            -38 -61 0 12 -2 hvcurveto
            15 return
          </CharString>
          <CharString index="215">
            0 144 callsubr
            return
          </CharString>
          <CharString index="216">
            514 rmoveto
            -22 callgsubr
            return
          </CharString>
          <CharString index="217">
            -194 114 return
          </CharString>
          <CharString index="218">
            169 callgsubr
            38 16 32 52 28 rrcurveto
            return
          </CharString>
          <CharString index="219">
            -20 -4 155 callsubr
            return
          </CharString>
          <CharString index="220">
            76 457 rlineto
            return
          </CharString>
          <CharString index="221">
            -25 -3 -19 rrcurveto
            return
          </CharString>
          <CharString index="222">
            -97 callsubr
            312 hlineto
            178 165 136 164 27 hvcurveto
            -83 1 rmoveto
            -123 -20 -128 -101 -142 hhcurveto
            -167 hlineto
            return
          </CharString>
          <CharString index="223">
            -37 -6 30 -1 18 206 callgsubr
            return
          </CharString>
          <CharString index="224">
            -29 23 hhcurveto
            11 4 2 11 15 hvcurveto
            77 54 return
          </CharString>
          <CharString index="225">
            hlineto
            -18 -31 -2 -36 -6 hvcurveto
            return
          </CharString>
          <CharString index="226">
            129 callgsubr
            hstemhm
            return
          </CharString>
          <CharString index="227">
            hstemhm
            141 85 -76 85 return
          </CharString>
          <CharString index="228">
            31 -2 18 hhcurveto
            return
          </CharString>
          <CharString index="229">
            254 callsubr
            -38 return
          </CharString>
          <CharString index="230">
            159 callgsubr
            -39 193 226 callsubr
            return
          </CharString>
          <CharString index="231">
            -39 callsubr
            endchar
          </CharString>
          <CharString index="232">
            70 11 48 51 40 hhcurveto
            41 29 -52 -68 -11 hvcurveto
            -342 hmoveto
            51 callgsubr
            return
          </CharString>
          <CharString index="233">
            -36 188 callsubr
            return
          </CharString>
          <CharString index="234">
            -165 78 callsubr
            return
          </CharString>
          <CharString index="235">
            -20 -3 15 -20 20 hhcurveto
            return
          </CharString>
          <CharString index="236">
            126 callgsubr
            6 39 15 26 53 28 96 20 55 66 5 34 rrcurveto
            -62 146 rmoveto
            -228 hlineto
            63 25 58 44 57 hhcurveto
            return
          </CharString>
          <CharString index="237">
            302 -11 260 callsubr
            return
          </CharString>
          <CharString index="238">
            54 326 45 15 38 39 8 47 rlinecurve
            return
          </CharString>
          <CharString index="239">
            -11 165 callgsubr
            return
          </CharString>
          <CharString index="240">
            4 callgsubr
            hintmask 0000100001100000
            8 callsubr
          </CharString>
          <CharString index="241">
            576 219 rmoveto
            121 20 -78 102 -120 hhcurveto
            -43 return
          </CharString>
          <CharString index="242">
            -38 31 hhcurveto
            8 7 3 3 7 hvcurveto
            139 57 31 13 return
          </CharString>
          <CharString index="243">
            128 callgsubr
            56 105 65 85 -58 105 -47 85 return
          </CharString>
          <CharString index="244">
            hstemhm
            82 190 callgsubr
            return
          </CharString>
          <CharString index="245">
            -36 -4 callsubr
            return
          </CharString>
          <CharString index="246">
            -47 -282 -65 callgsubr
            38 7 -28 1 -19 hhcurveto
            -44 hlineto
            return
          </CharString>
          <CharString index="247">
            14 -12 1 callgsubr
            -17 callgsubr
            return
          </CharString>
          <CharString index="248">
            -10 callsubr
            -17 callgsubr
            return
          </CharString>
          <CharString index="249">
            0 132 callgsubr
            return
          </CharString>
          <CharString index="250">
            382 -21 250 -20 hstem
            return
          </CharString>
          <CharString index="251">
            77 282 77 return
          </CharString>
          <CharString index="252">
            5 14 hhcurveto
            23 return
          </CharString>
          <CharString index="253">
            -67 -60 -57 -65 -11 hvcurveto
            -64 -11 42 -58 73 hhcurveto
            63 65 57 66 11 hvcurveto
            -69 -1 rmoveto
            -29 -5 -29 -24 -28 hhcurveto
            -29 -19 25 29 5 hvcurveto
            return
          </CharString>
          <CharString index="254">
            rmoveto
            39 6 -27 1 -20 hhcurveto
            -114 242 callsubr
            113 hlineto
            19 28 191 callgsubr
          </CharString>
          <CharString index="255">
            195 callgsubr
            153 85 -24 86 -62 86 -47 85 return
          </CharString>
          <CharString index="256">
            hlineto
            18 30 1 37 -48 callgsubr
            return
          </CharString>
          <CharString index="257">
            hlineto
            -20 -29 -1 -38 -7 hvcurveto
            -36 -6 return
          </CharString>
          <CharString index="258">
            100 callsubr
            30 -2 return
          </CharString>
          <CharString index="259">
            hstemhm
            142 102 callsubr
            return
          </CharString>
          <CharString index="260">
            -197 70 -70 77 return
          </CharString>
          <CharString index="261">
            -31 -26 -27 -35 -6 -35 rrcurveto
            160 callsubr
            11 11 1 27 -11 187 callsubr
            return
          </CharString>
          <CharString index="262">
            16 -20 20 hhcurveto
            return
          </CharString>
          <CharString index="263">
            25 31 26 16 12 hhcurveto
            5 return
          </CharString>
          <CharString index="264">
            41 callsubr
            165 83 callgsubr
            return
          </CharString>
          <CharString index="265">
            -38 -61 0 12 -2 hvcurveto
            15 -2 20 -30 -24 -18 46 callsubr
            112 -4 68 hhcurveto
            68 112 4 84 14 hvcurveto
            return
          </CharString>
          <CharString index="266">
            -53 -56 -32 -55 -9 hvcurveto
            -18 -3 9 -19 24 hhcurveto
            18 22 13 28 4 hvcurveto
            6 4 11 145 callsubr
            15 -4 -9 4 hvcurveto
            return
          </CharString>
          <CharString index="267">
            101 callsubr
            40 43 219 callsubr
            return
          </CharString>
          <CharString index="268">
            169 28 hvcurveto
            return
          </CharString>
          <CharString index="269">
            rmoveto
            32 5 -21 26 -32 hhcurveto
            hintmask 10100000
            33 callgsubr
            endchar
          </CharString>
          <CharString index="270">
            741 149 rmoveto
            23 4 -15 19 -25 hhcurveto
            -23 -22 -19 -23 -4 hvcurveto
            -40 -7 -34 -34 -38 hhcurveto
            -58 -59 31 29 -53 hvcurveto
            return
          </CharString>
          <CharString index="271">
            77 -71 231 callgsubr
            79 83 233 84 9 84 return
          </CharString>
          <CharString index="272">
            -149 -97 110 129 22 hvcurveto
            132 22 136 108 146 hhcurveto
            149 97 -110 -129 -22 hvcurveto
            return
          </CharString>
          <CharString index="273">
            95 callgsubr
            -41 hhcurveto
            -42 return
          </CharString>
          <CharString index="274">
            46 8 1 14 -47 hhcurveto
            -35 -13 -6 -43 -7 hvcurveto
            -3 -16 -4 -28 -13 -63 -83 -53 rlinecurve
            -41 -26 -24 -33 -6 -41 return
          </CharString>
          <CharString index="275">
            rlineto
            -58 callsubr
            return
          </CharString>
          <CharString index="276">
            hstemhm
            82 85 79 105 0 105 -91 85 -37 105 return
          </CharString>
          <CharString index="277">
            hlineto
            -19 100 callsubr
            return
          </CharString>
          <CharString index="278">
            157 callgsubr
            25 72 return
          </CharString>
          <CharString index="279">
            25 4 -16 18 -24 hhcurveto
            -13 return
          </CharString>
          <CharString index="280">
            -36 callgsubr
            37 7 return
          </CharString>
          <CharString index="281">
            -47 -282 rlineto
            -44 hlineto
            return
          </CharString>
          <CharString index="282">
            rlineto
            -24 -4 -3 -25 return
          </CharString>
          <CharString index="283">
            rmoveto
            28 5 -19 23 -28 hhcurveto
            -28 -27 -23 -28 -5 hvcurveto
            -28 -5 20 -23 28 hhcurveto
            28 26 23 28 5 hvcurveto
            return
          </CharString>
          <CharString index="284">
            -116 -19 57 -82 80 hhcurveto
            81 85 85 112 18 hvcurveto
            return
          </CharString>
          <CharString index="285">
            105 0 105 -43 105 return
          </CharString>
          <CharString index="286">
            29 28 5 hvcurveto
            return
          </CharString>
          <CharString index="287">
            hstemhm
            142 85 -84 84 -54 84 -30 84 return
          </CharString>
          <CharString index="288">
            58 callsubr
            43 80 return
          </CharString>
          <CharString index="289">
            77 51 76 126 76 139 77 hstem
            return
          </CharString>
          <CharString index="290">
            192 callgsubr
            92 77 return
          </CharString>
          <CharString index="291">
            -16 220 callgsubr
            -31 -26 -15 -12 hhcurveto
            -5 return
          </CharString>
          <CharString index="292">
            168 hlineto
            -7 -45 rlineto
            -35 hlineto
            -14 -23 -2 -25 -5 hvcurveto
            -24 -4 22 -2 15 hhcurveto
            126 hlineto
            return
          </CharString>
          <CharString index="293">
            hstemhm
            473 85 158 84 -71 86 23 84 -53 84 return
          </CharString>
          <CharString index="294">
            10 -11 7 -27 -5 -40 -34 rrcurveto
            return
          </CharString>
          <CharString index="295">
            -6 hvcurveto
            210 callsubr
            return
          </CharString>
          <CharString index="296">
            -16 20 -20 hhcurveto
            return
          </CharString>
          <CharString index="297">
            21 -36 hhcurveto
            -28 return
          </CharString>
          <CharString index="298">
            77 201 77 return
          </CharString>
          <CharString index="299">
            6 -5 12 -40 214 callgsubr
            return
          </CharString>
          <CharString index="300">
            96 16 85 30 48 hhcurveto
            60 6 -29 -50 -8 hvcurveto
            return
          </CharString>
          <CharString index="301">
            78 callgsubr
            61 -21 return
          </CharString>
          <CharString index="302">
            39 -221 76 77 77 350 77 return
          </CharString>
          <CharString index="303">
            -20 -28 -1 -38 -7 hvcurveto
            return
          </CharString>
          <CharString index="304">
            -60 -21 773 -20 hstem
            return
          </CharString>
          <CharString index="305">
            hlineto
            -8 -7 0 -1 -7 hvcurveto
            -20 -2 -15 -13 -4 -22 rrcurveto
            -21 -3 9 -17 25 hhcurveto
            return
          </CharString>
          <CharString index="306">
            -25 -23 -32 -6 -39 29 callgsubr
            return
          </CharString>
          <CharString index="307">
            hhcurveto
            198 176 147 161 callsubr
            return
          </CharString>
          <CharString index="308">
            53 callsubr
            endchar
          </CharString>
          <CharString index="309">
            218 callsubr
            17 84 return
          </CharString>
          <CharString index="310">
            rlineto
            37 245 callsubr
            return
          </CharString>
          <CharString index="311">
            36 214 rlineto
            return
          </CharString>
          <CharString index="312">
            32 194 rlineto
            17 3 -11 15 -17 hhcurveto
            -24 hlineto
            -16 -18 -15 -17 -3 hvcurveto
            return
          </CharString>
          <CharString index="313">
            -47 callgsubr
            44 230 callgsubr
            return
          </CharString>
          <CharString index="314">
            3 17 2 11 12 10 19 61 callgsubr
            6 28 rrcurveto
            endchar
          </CharString>
          <CharString index="315">
            -48 0 252 callsubr
            return
          </CharString>
          <CharString index="316">
            104 -33 85 119 85 -64 84 return
          </CharString>
          <CharString index="317">
            -38 -7 28 -1 20 hhcurveto
            return
          </CharString>
          <CharString index="318">
            rmoveto
            20 3 -15 return
          </CharString>
          <CharString index="319">
            -21 115 81 -40 -21 callsubr
            hintmask 11000100
            499 return
          </CharString>
          <CharString index="320">
            14 22 2 24 4 hvcurveto
            26 5 -21 1 -15 hhcurveto
            -35 hlineto
            7 45 rlineto
            return
          </CharString>
          <CharString index="321">
            hlineto
            29 22 10 29 5 hvcurveto
            24 147 rmoveto
            33 6 -24 5 -28 hhcurveto
            return
          </CharString>
          <CharString index="322" raw="1">
            4f1d6006 0b  
          </CharString>
          <CharString index="323">
            7 -7 -1 hvcurveto
            -3 -2 -1 -1 -7 vhcurveto
            return
          </CharString>
          <CharString index="324">
            572 rmoveto
            38 7 return
          </CharString>
          <CharString index="325">
            85 -72 85 -73 85 return
          </CharString>
          <CharString index="326">
            26 35 31 hvcurveto
            return
          </CharString>
          <CharString index="327">
            13 callgsubr
            hintmask 00001001
            return
          </CharString>
          <CharString index="328">
            -3 hvcurveto
            -22 -4 17 -1 11 hhcurveto
            96 hlineto
            11 18 1 22 4 hvcurveto
            return
          </CharString>
          <CharString index="329">
            -147 -169 -28 hvcurveto
            -173 -29 129 -144 196 hhcurveto
            return
          </CharString>
          <CharString index="330">
            127 0 247 callsubr
            return
          </CharString>
          <CharString index="331">
            12 70 203 callsubr
            return
          </CharString>
          <CharString index="332">
            hstemhm
            111 85 -76 190 callgsubr
            return
          </CharString>
          <CharString index="333">
            rmoveto
            54 9 -43 33 -65 hhcurveto
            return
          </CharString>
          <CharString index="334">
            132 81 75 81 104 81 return
          </CharString>
          <CharString index="335">
            252 callgsubr
            105 return
          </CharString>
          <CharString index="336">
            72 -72 74 -71 72 -49 74 return
          </CharString>
          <CharString index="337">
            105 62 119 callsubr
            return
          </CharString>
          <CharString index="338">
            68 callgsubr
            hstem
            return
          </CharString>
          <CharString index="339">
            37 7 -31 2 -18 hhcurveto
            return
          </CharString>
          <CharString index="340">
            -18 23 -29 hhcurveto
            -27 return
          </CharString>
          <CharString index="341">
            -21 147 -20 return
          </CharString>
          <CharString index="342">
            248 callsubr
            hintmask 11000100
            return
          </CharString>
          <CharString index="343">
            -38 -7 26 -17 24 hhcurveto
            25 30 20 33 5 hvcurveto
            2 10 return
          </CharString>
          <CharString index="344">
            23 6 28 rrcurveto
            endchar
          </CharString>
          <CharString index="345">
            hlineto
            -11 83 rlineto
            85 -160 rmoveto
            -49 -106 -15 106 rlineto
            return
          </CharString>
          <CharString index="346">
            -223 153 callsubr
            120 144 callsubr
            return
          </CharString>
          <CharString index="347">
            hlineto
            -19 -29 122 callsubr
            -6 27 -2 20 hhcurveto
            return
          </CharString>
          <CharString index="348">
            11 11 0 27 -10 187 callsubr
            return
          </CharString>
          <CharString index="349">
            hlineto
            -19 -28 122 callsubr
            -7 28 -2 20 hhcurveto
            return
          </CharString>
          <CharString index="350">
            85 -44 85 0 85 171 83 return
          </CharString>
          <CharString index="351">
            hstemhm
            -74 103 95 84 return
          </CharString>
          <CharString index="352">
            6 -5 12 -40 hhcurveto
            return
          </CharString>
          <CharString index="353">
            -4 -9 3 hvcurveto
            return
          </CharString>
          <CharString index="354">
            81 callgsubr
            hstemhm
            140 102 callsubr
            return
          </CharString>
          <CharString index="355">
            80 47 80 -40 -21 callsubr
            return
          </CharString>
          <CharString index="356">
            -170 -21 500 122 -77 77 16 -20 hstemhm
            return
          </CharString>
          <CharString index="357">
            262 callgsubr
            254 72 -45 74 return
          </CharString>
          <CharString index="358">
            110 85 428 85 return
          </CharString>
          <CharString index="359">
            77 0 76 206 77 return
          </CharString>
          <CharString index="360">
            hlineto
            hintmask 1000010000000000
            return
          </CharString>
          <CharString index="361">
            -1 -38 -6 hvcurveto
            return
          </CharString>
          <CharString index="362">
            181 callsubr
            47 return
          </CharString>
          <CharString index="363">
            -186 77 224 80 75 77 23 77 hstemhm
            return
          </CharString>
          <CharString index="364">
            -81 77 242 77 -19 77 242 77 hstemhm
            return
          </CharString>
          <CharString index="365">
            hlineto
            6 36 232 callgsubr
            rlinecurve
            15 return
          </CharString>
          <CharString index="366">
            132 callsubr
            63 -21 return
          </CharString>
          <CharString index="367">
            77 137 77 265 77 return
          </CharString>
          <CharString index="368">
            77 53 119 callsubr
            return
          </CharString>
          <CharString index="369">
            rmoveto
            -18 callgsubr
            return
          </CharString>
          <CharString index="370">
            175 callgsubr
            23 3 return
          </CharString>
          <CharString index="371">
            hstemhm
            276 callgsubr
            return
          </CharString>
          <CharString index="372">
            -32 -5 hvcurveto
            -32 return
          </CharString>
          <CharString index="373">
            rlineto
            311 hlineto
            return
          </CharString>
          <CharString index="374">
            0 77 183 114 160 77 hstemhm
            return
          </CharString>
          <CharString index="375">
            96 0 45 86 43 263 43 86 45 return
          </CharString>
          <CharString index="376">
            20 37 23 22 32 5 30 rrcurveto
            46 7 return
          </CharString>
          <CharString index="377">
            245 callgsubr
            -28 -5 -40 -34 rrcurveto
            return
          </CharString>
          <CharString index="378">
            2 callgsubr
            275 callgsubr
            return
          </CharString>
          <CharString index="379">
            -107 -6 192 callgsubr
            120 -20 51 return
          </CharString>
          <CharString index="380" raw="1">
            1f130800 0b  
          </CharString>
          <CharString index="381">
            hvcurveto
            131 22 return
          </CharString>
          <CharString index="382">
            hmoveto
            25 4 -16 return
          </CharString>
        <CharString name=".notdef">
          -235 endchar
        </CharString>
        <CharString name="A">
          78 callgsubr
          hstem
          -107 callgsubr
          endchar
        </CharString>
        <CharString name="AE">
          201 callgsubr
          186 callsubr
          hintmask 1010110100000000
          56 callgsubr
          hintmask 1111101010000000
          -53 callsubr
          endchar
        </CharString>
        <CharString name="AE.dup">
          201 callgsubr
          186 callsubr
          hintmask 1010110100000000
          56 callgsubr
          hintmask 1111101010000000
          -53 callsubr
          endchar
        </CharString>
        <CharString name="AEacute">
          201 callgsubr
          63 129 callgsubr
          186 callsubr
          hintmask 1010001101000000
          56 callgsubr
          hintmask 1111001010100000
          -53 callsubr
          hintmask 0000110000000000
          158 224 -105 callgsubr
        </CharString>
        <CharString name="Aacute">
          78 callgsubr
          71 119 callsubr
          hintmask 11100000
          -107 callgsubr
          hintmask 00011000
          152 232 -105 callgsubr
        </CharString>
        <CharString name="Abreve">
          78 callgsubr
          50 267 callgsubr
          hintmask 11100000
          -107 callgsubr
          hintmask 00011000
          38 callgsubr
          endchar
        </CharString>
        <CharString name="Abreveacute">
          78 callgsubr
          50 80 215 -20 hstemhm
          hintmask 11100000
          -107 callgsubr
          hintmask 00011000
          38 callgsubr
          -40 164 rmoveto
          -103 callsubr
        </CharString>
        <CharString name="Abrevedotbelow">
          -194 114 80 63 callgsubr
          50 267 callgsubr
          298 115 hintmask 01111100
          -107 callgsubr
          38 callgsubr
          hintmask 10000010
          -270 -878 -99 callsubr
        </CharString>
        <CharString name="Abrevegrave">
          78 callgsubr
          50 267 callgsubr
          hintmask 11100000
          -107 callgsubr
          hintmask 00011000
          38 callgsubr
          -50 107 rmoveto
          -10 -1 -17 137 callgsubr
          -1 16 2 68 callsubr
        </CharString>
        <CharString name="Abrevehookabove">
          78 callgsubr
          50 262 callgsubr
          401 72 -45 74 -29 72 -69 72 25 72 hintmask 1110001000000000
          -107 callgsubr
          hintmask 0001000100000000
          217 215 rmoveto
          24 4 -11 1 callsubr
          -6 hvcurveto
          -12 -6 -62 0 -37 hhcurveto
          hintmask 0001011000000000
          124 callgsubr
          hintmask 0000110100100000
          159 callsubr
          hintmask 0000001001000000
          102 callgsubr
          -3 -17 rcurveline
          -20 -3 14 -16 19 hhcurveto
          hintmask 0000000010000000
          21 18 16 20 3 hvcurveto
          hintmask 0000100001100000
          8 callsubr
        </CharString>
        <CharString name="Abrevetilde">
          78 callgsubr
          50 248 callsubr
          hintmask 1110000000000000
          -107 callgsubr
          hintmask 0001100010000000
          38 callgsubr
          28 173 rmoveto
          20 4 184 callsubr
          -8 8 10 -8 hvcurveto
          hintmask 0000100010000000
          -10 callsubr
          -23 -16 -35 114 callsubr
          hintmask 0000010000000000
          -20 -3 155 callsubr
          hintmask 0000001000000000
          54 callgsubr
          hintmask 0000000010000000
          250 callgsubr
          hintmask 0000010000000000
          -14 11 19 -22 36 hhcurveto
          28 31 259 callgsubr
          24 16 34 55 callsubr
        </CharString>
        <CharString name="Acaron">
          78 callgsubr
          157 -20 -31 callsubr
          186 196 -98 callsubr
        </CharString>
        <CharString name="Acircumflex">
          194 callsubr
          -31 callsubr
          180 156 -106 callgsubr
          endchar
        </CharString>
        <CharString name="Acircumflexacute">
          194 callsubr
          284 -20 hstemhm
          hintmask 11100000
          -107 callgsubr
          hintmask 00011000
          180 156 -106 callgsubr
          -7 202 -105 callgsubr
        </CharString>
        <CharString name="Acircumflexdotbelow">
          -194 114 80 63 callgsubr
          61 -21 hstemhm
          298 115 hintmask 01111000
          -107 callgsubr
          180 156 -106 callgsubr
          hintmask 10000100
          -233 -819 -99 callsubr
        </CharString>
        <CharString name="Acircumflexgrave">
          194 callsubr
          -31 callsubr
          180 156 -106 callgsubr
          -16 145 -11 callsubr
          16 -7 11 -7 -3 -22 rlinecurve
          endchar
        </CharString>
        <CharString name="Acircumflexhookabove">
          194 callsubr
          200 167 callgsubr
          577 229 callsubr
          0 72 hintmask 1110000000000000
          -107 callgsubr
          hintmask 0001000001000000
          180 156 -106 callgsubr
          103 231 rmoveto
          hintmask 0000110100100000
          -67 callgsubr
          3 hvcurveto
          hintmask 0000000010000000
          102 callgsubr
          rrcurveto
          hintmask 0000001000000000
          4 callgsubr
          hintmask 0000100010100000
          110 callgsubr
        </CharString>
        <CharString name="Acircumflextilde">
          194 callsubr
          115 81 -40 -21 callsubr
          hintmask 1110000000000000
          -107 callgsubr
          hintmask 0001100010000000
          180 156 -106 callgsubr
          62 211 52 callsubr
          hintmask 0000000100000000
          -13 -8 -5 -8 -10 hvcurveto
          hintmask 0000010000000000
          -17 callsubr
          hintmask 0000100010000000
          140 callsubr
          hintmask 0000010000000000
          112 callsubr
          hintmask 0000001000000000
          54 callgsubr
          hintmask 0000000010000000
          21 callsubr
          hintmask 0000010000000000
          -62 callsubr
          hintmask 0000001000000000
          23 16 35 55 callsubr
        </CharString>
        <CharString name="Adblgrave">
          78 callgsubr
          71 234 callsubr
          hstemhm
          hintmask 11100000
          -107 callgsubr
          hintmask 00011000
          171 173 -77 callgsubr
        </CharString>
        <CharString name="Adieresis">
          78 callgsubr
          40 105 hstemhm
          345 105 92 105 hintmask 11100000
          -107 callgsubr
          hintmask 00011100
          -16 169 -76 callgsubr
        </CharString>
        <CharString name="Adotbelow">
          -194 114 80 63 callgsubr
          hstemhm
          298 115 hintmask 01110000
          -107 callgsubr
          hintmask 10001000
          -53 -663 -99 callsubr
        </CharString>
        <CharString name="Agrave">
          78 callgsubr
          71 119 callsubr
          hintmask 11100000
          -107 callgsubr
          hintmask 00011000
          142 175 -81 callgsubr
        </CharString>
        <CharString name="Ahookabove">
          78 callgsubr
          72 121 callgsubr
          406 171 callsubr
          hintmask 1110000001000000
          -107 callgsubr
          hintmask 0000011000000000
          157 282 57 callsubr
          hintmask 0000000100000000
          -18 -3 10 -19 24 hhcurveto
          hintmask 0000001000000000
          174 callgsubr
          hintmask 0000110100100000
          61 callsubr
          hintmask 0000000001000000
          102 callgsubr
          rrcurveto
          hintmask 0001000010000000
          133 callsubr
        </CharString>
        <CharString name="Alpha">
          78 callgsubr
          hstem
          -107 callgsubr
          endchar
        </CharString>
        <CharString name="Amacron">
          78 callgsubr
          60 79 -31 callsubr
          223 176 -74 callsubr
        </CharString>
        <CharString name="Aogonek">
          153 callsubr
          120 63 callgsubr
          hstemhm
          244 75 150 75 hintmask 01111110
          19 callgsubr
          hintmask 10110110
          -5 -7 111 callsubr
          49 -76 callsubr
          -201 206 rmoveto
          -201 hlineto
          147 282 rlineto
          endchar
        </CharString>
        <CharString name="Aogonekacute">
          153 callsubr
          120 63 callgsubr
          71 119 callsubr
          244 75 150 75 hintmask 0111100110000000
          19 callgsubr
          hintmask 1011000110000000
          -5 -7 111 callsubr
          49 -76 callsubr
          -201 206 rmoveto
          -201 hlineto
          147 282 rlineto
          hintmask 0000011000000000
          152 232 -105 callgsubr
        </CharString>
        <CharString name="Aring">
          0 77 90 77 379 48 38 48 hstemhm
          hintmask 11100000
          -107 callgsubr
          hintmask 00110000
          75 164 rmoveto
          -14 -2 -27 -5 -21 hhcurveto
          -24 -22 6 13 2 hvcurveto
          13 2 27 6 -45 callsubr
          55 33 34 6 hvcurveto
          endchar
        </CharString>
        <CharString name="Aringacute">
          0 77 90 77 379 48 38 48 20 48 100 -20 hstemhm
          hintmask 11100000
          -107 callgsubr
          hintmask 00111100
          75 164 rmoveto
          -14 -2 -27 -5 -21 hhcurveto
          -24 -22 6 13 2 hvcurveto
          13 2 27 6 -45 callsubr
          55 33 34 6 hvcurveto
          22 192 rmoveto
          -103 callsubr
        </CharString>
        <CharString name="Atilde">
          78 callgsubr
          40 -21 callsubr
          hintmask 11100000
          -107 callgsubr
          hintmask 00000010
          216 211 52 callsubr
          hintmask 00000100
          -13 -8 -5 -8 -10 hvcurveto
          hintmask 00010000
          -17 callsubr
          hintmask 00000010
          14 -12 1 callgsubr
          hintmask 00000100
          -17 callgsubr
          hintmask 00010000
          112 callsubr
          hintmask 00001000
          54 callgsubr
          hintmask 00000010
          21 callsubr
          hintmask 00010000
          -62 callsubr
          hintmask 00001000
          23 16 35 55 callsubr
        </CharString>
        <CharString name="B">
          6 callsubr
        </CharString>
        <CharString name="Beta">
          6 callsubr
        </CharString>
        <CharString name="C">
          231 callsubr
          109 85 vstem
          -80 callgsubr
          -167 -28 121 -150 205 hhcurveto
          181 123 80 103 17 hvcurveto
          endchar
        </CharString>
        <CharString name="Cacute">
          261 callgsubr
          148 -20 hstemhm
          109 85 hintmask 11001000
          -80 callgsubr
          -167 -28 121 -150 205 hhcurveto
          181 123 80 103 17 hvcurveto
          hintmask 00110000
          -72 586 -105 callgsubr
        </CharString>
        <CharString name="Ccaron">
          68 callgsubr
          138 -20 hstemhm
          109 85 hintmask 11010000
          -80 callgsubr
          -167 -28 121 -150 205 hhcurveto
          181 123 80 103 17 hvcurveto
          hintmask 00100000
          -38 550 -98 callsubr
        </CharString>
        <CharString name="Ccedilla">
          -202 78 29 78 -77 77 6 109 callgsubr
          hstemhm
          109 85 233 84 -40 84 89 84 hintmask 0011111010000000
          -80 callgsubr
          -27 -165 117 -148 201 -4 -1 -6 rcurveline
          197 callgsubr
          rrcurveto
          hintmask 1010000100000000
          12 callsubr
          hintmask 0100000110000000
          85 131 4 103 17 hvcurveto
          7 44 -21 31 -34 18 126 23 81 68 14 83 rrcurveto
          endchar
        </CharString>
        <CharString name="Ccircumflex">
          68 callgsubr
          42 -21 hstemhm
          109 85 hintmask 11010000
          -80 callgsubr
          -167 -28 121 -150 205 hhcurveto
          181 123 80 103 17 hvcurveto
          hintmask 00100000
          -44 510 -106 callgsubr
          endchar
        </CharString>
        <CharString name="Cdotaccent">
          68 callgsubr
          32 114 hstemhm
          109 85 284 115 hintmask 11010000
          -80 callgsubr
          -167 -28 121 -150 205 hhcurveto
          181 123 80 103 17 hvcurveto
          hintmask 00101000
          -135 539 -66 callgsubr
        </CharString>
        <CharString name="Chi">
          -5 callgsubr
        </CharString>
        <CharString name="D">
          273 0 77 457 77 hstem
          227 86 381 83 vstem
          -46 callgsubr
          endchar
        </CharString>
        <CharString name="Dcaron">
          273 78 callsubr
          149 -20 hstemhm
          227 86 381 83 hintmask 11011000
          -46 callgsubr
          hintmask 00100000
          -122 421 -98 callsubr
        </CharString>
        <CharString name="Dcroat">
          6 callgsubr
        </CharString>
        <CharString name="Ddotbelow">
          273 87 callsubr
          hstemhm
          218 115 -106 86 381 83 hintmask 01101100
          -46 callgsubr
          hintmask 10010000
          -361 -438 -99 callsubr
        </CharString>
        <CharString name="Delta">
          360 0 83 540 -20 hstem
          820 27 rmoveto
          4 1 5 -5 12 vhcurveto
          -204 536 rlineto
          29 -11 -10 10 -39 hhcurveto
          -22 hlineto
          -27 -20 -3 -33 -24 hvcurveto
          -384 -537 rlineto
          -10 -14 -1 -5 -4 vvcurveto
          -24 -4 20 -3 19 hhcurveto
          676 hlineto
          19 22 3 24 4 hvcurveto
          -114 56 rmoveto
          -510 hlineto
          333 467 rlineto
          endchar
        </CharString>
        <CharString name="Dlinebelow">
          273 268 callgsubr
          227 86 381 83 hintmask 01111000
          -46 callgsubr
          hintmask 10000000
          -227 -451 -74 callsubr
        </CharString>
        <CharString name="E">
          60 callgsubr
          15 callgsubr
          hintmask 1000100001000000
          -71 callgsubr
          hintmask 0100010010000000
          -82 callsubr
          hintmask 0100001000000000
          -176 hlineto
          hintmask 0010000100100000
          -77 callsubr
          hintmask 0010001000000000
          -500 hlineto
          hintmask 0001000000000000
          196 callsubr
          hintmask 0010010000000000
          -36 -6 30 -2 18 hhcurveto
          hintmask 0010000100000000
          43 hlineto
          hintmask 1000100000000000
          -71 callsubr
          endchar
        </CharString>
        <CharString name="Eacute">
          60 callgsubr
          63 -21 148 -90 callsubr
          -89 709 -105 callgsubr
        </CharString>
        <CharString name="Ebreve">
          60 callgsubr
          42 80 47 -90 callsubr
          -24 692 rmoveto
          24 4 -11 15 -25 hhcurveto
          -30 -8 -20 -15 -6 hvcurveto
          -12 -6 -62 0 -37 hhcurveto
          158 callsubr
          endchar
        </CharString>
        <CharString name="Ecaron">
          60 callgsubr
          149 -20 -64 callsubr
          -55 673 -98 callsubr
        </CharString>
        <CharString name="Ecircumflex">
          160 callgsubr
          -64 callsubr
          -61 633 -106 callgsubr
          endchar
        </CharString>
        <CharString name="Ecircumflexacute">
          160 callgsubr
          284 -90 callsubr
          -61 633 -106 callgsubr
          -7 202 -105 callgsubr
        </CharString>
        <CharString name="Ecircumflexdotbelow">
          185 -194 114 80 101 callgsubr
          53 -21 40 callgsubr
          -42 115 73 85 66 85 -54 85 hintmask 0100001000001000
          -71 callgsubr
          hintmask 0010000100010000
          -82 callsubr
          hintmask 0010000010000000
          -176 hlineto
          hintmask 0001000001000100
          -77 callsubr
          hintmask 0001000010000000
          -500 hlineto
          hintmask 0000010000000000
          196 callsubr
          hintmask 0001000100000000
          -36 -6 30 -2 18 hhcurveto
          hintmask 0001000001000000
          43 hlineto
          hintmask 0100101000000000
          -71 callsubr
          -61 633 -106 callgsubr
          hintmask 1000000000100000
          -233 -819 -99 callsubr
        </CharString>
        <CharString name="Ecircumflexgrave">
          160 callgsubr
          -61 callgsubr
          hintmask 0001000001000000
          -61 633 -106 callgsubr
          -16 145 -11 callsubr
          16 -7 11 -7 -3 -22 rlinecurve
          endchar
        </CharString>
        <CharString name="Ecircumflexhookabove">
          160 callgsubr
          200 72 13 72 29 callsubr
          6 229 callsubr
          -40 85 -54 85 -76 72 hintmask 100000010000000010000000
          -71 callgsubr
          hintmask 010000001001000000000000
          -82 callsubr
          hintmask 010000000100000000000000
          -176 hlineto
          hintmask 001000000010000001000000
          -77 callsubr
          hintmask 001000000100000000000000
          -500 hlineto
          hintmask 000000100000000000000000
          196 callsubr
          hintmask 001000001000000000000000
          -36 -6 30 -2 18 hhcurveto
          hintmask 001000000010000000000000
          43 hlineto
          hintmask 100000010000010000000000
          -71 callsubr
          hintmask 000100000000000100000000
          -61 633 -106 callgsubr
          103 231 rmoveto
          hintmask 000011000000010000100000
          -67 callgsubr
          3 hvcurveto
          hintmask 000000000000001000000000
          102 callgsubr
          rrcurveto
          hintmask 000000000000100000000000
          4 callgsubr
          hintmask 000010000000001000100000
          110 callgsubr
        </CharString>
        <CharString name="Ecircumflextilde">
          160 callgsubr
          115 81 -40 81 -68 81 -54 81 -67 80 15 callgsubr
          hintmask 100000000010000100000000
          -71 callgsubr
          hintmask 010000000001001000000000
          -82 callsubr
          hintmask 010000000000100000000000
          -176 hlineto
          hintmask 001000000000010010000000
          -77 callsubr
          hintmask 001000000000100000000000
          -500 hlineto
          hintmask 000000000100000000000000
          196 callsubr
          hintmask 001000000001000000000000
          -36 -6 30 -2 18 hhcurveto
          hintmask 001000000000010000000000
          43 hlineto
          hintmask 100000000010000000000000
          -71 callsubr
          hintmask 000110001000000000000000
          -61 633 -106 callgsubr
          62 211 52 callsubr
          hintmask 000000010000000000000000
          -13 -8 -5 -8 -10 hvcurveto
          hintmask 000001000000000000000000
          -17 callsubr
          hintmask 000010001000000000000000
          140 callsubr
          hintmask 000001000000000000000000
          112 callsubr
          hintmask 000000100000000000000000
          54 callgsubr
          hintmask 000000001000000000000000
          21 callsubr
          hintmask 000001000000000000000000
          -62 callsubr
          hintmask 000000100000000000000000
          23 16 35 55 callsubr
        </CharString>
        <CharString name="Edblgrave">
          60 callgsubr
          63 -21 147 -90 callsubr
          -41 650 -77 callgsubr
        </CharString>
        <CharString name="Edieresis">
          60 callgsubr
          32 105 40 callgsubr
          5 105 36 85 -29 105 -10 85 -54 85 hintmask 1000010000001000
          -71 callgsubr
          hintmask 0100001000100000
          -82 callsubr
          hintmask 0100000100000000
          -176 hlineto
          hintmask 0010000010000100
          -77 callsubr
          hintmask 0010000100000000
          87 callgsubr
          hintmask 0010001000000000
          -36 -6 30 -2 18 hhcurveto
          hintmask 0010000010000000
          43 253 callsubr
          -71 callsubr
          hintmask 0001000001010000
          -257 646 -76 callgsubr
        </CharString>
        <CharString name="Edotaccent">
          60 callgsubr
          43 114 40 callgsubr
          100 115 -69 85 66 85 -54 85 hintmask 1000010000010000
          -71 callgsubr
          hintmask 0100001000100000
          -82 callsubr
          hintmask 0100000100000000
          -176 hlineto
          hintmask 0010000010001000
          -77 callsubr
          hintmask 0010000100000000
          87 callgsubr
          hintmask 0010001000000000
          -36 -6 30 -2 18 hhcurveto
          hintmask 0010000010000000
          43 253 callsubr
          -71 callsubr
          hintmask 0001000001000000
          -152 662 -66 callgsubr
        </CharString>
        <CharString name="Edotbelow">
          185 -194 114 80 101 callgsubr
          40 callgsubr
          -42 115 73 85 66 85 -54 85 hintmask 0100010000010000
          -71 callgsubr
          hintmask 0010001000100000
          -82 callsubr
          hintmask 0010000100000000
          -176 hlineto
          hintmask 0001000010001000
          -77 callsubr
          hintmask 0001000100000000
          87 callgsubr
          hintmask 0001001000000000
          -36 -6 30 -2 18 hhcurveto
          hintmask 0001000010000000
          43 hlineto
          hintmask 0100010000000000
          -71 callsubr
          hintmask 1000000001000000
          -294 -186 -99 callsubr
        </CharString>
        <CharString name="Egrave">
          60 callgsubr
          63 -21 148 -90 callsubr
          -99 652 -81 callgsubr
        </CharString>
        <CharString name="Ehookabove">
          60 callgsubr
          64 -21 84 72 13 72 40 callgsubr
          65 157 callgsubr
          -39 85 -21 72 15 85 -54 85 hintmask 100000010000000001000000
          -71 callgsubr
          hintmask 010000001000000100000000
          -82 callsubr
          hintmask 010000000100000000000000
          -176 hlineto
          hintmask 001000000010000000100000
          -77 callsubr
          hintmask 001000000100000000000000
          -500 hlineto
          hintmask 000000100000000000000000
          196 callsubr
          hintmask 001000001000000000000000
          -36 -6 30 -2 18 hhcurveto
          hintmask 001000000010000000000000
          43 hlineto
          hintmask 100000010000000000000000
          -71 callsubr
          hintmask 000001000001000000000000
          -85 759 57 callsubr
          hintmask 000000000000100000000000
          -18 -3 10 -19 24 hhcurveto
          hintmask 000000000001000000000000
          174 callgsubr
          hintmask 000011000000100010000000
          61 callsubr
          hintmask 000000000000001000000000
          102 callgsubr
          rrcurveto
          hintmask 000100000000010000000000
          4 callgsubr
          hintmask 000010000000001010000000
          8 callsubr
        </CharString>
        <CharString name="Emacron">
          60 callgsubr
          52 79 -64 callsubr
          -18 653 -74 callsubr
        </CharString>
        <CharString name="Eng">
          -11 103 -92 77 459 86 hstemhm
          113 86 0 65 423 86 hintmask 01110000
          773 306 rmoveto
          173 29 -111 143 -171 hhcurveto
          -83 -85 -22 -42 -65 hvcurveto
          1 4 rlineto
          37 192 callsubr
          -76 -457 rlineto
          -44 hlineto
          -19 -29 -1 -38 -7 hvcurveto
          116 callsubr
          hintmask 10101100
          57 344 rlineto
          83 27 112 32 102 hhcurveto
          123 80 -105 -125 -21 hvcurveto
          -17 -100 -44 -102 -77 -24 rrcurveto
          8 -8 -12 4 -12 hhcurveto
          -29 -25 -23 -28 -5 hvcurveto
          -28 -5 18 -24 29 hhcurveto
          143 103 157 160 27 hvcurveto
          endchar
        </CharString>
        <CharString name="Eogonek">
          207 callgsubr
          40 callgsubr
          99 75 -28 85 -28 84 -71 85 -4 85 -81 84 -57 85 hintmask 001000010000010100000000
          -71 callgsubr
          hintmask 000100001000001000000000
          33 201 rlineto
          176 hlineto
          -41 -6 2 -15 38 hhcurveto
          40 5 26 23 4 hvcurveto
          hintmask 000100000100100000000000
          15 90 95 callgsubr
          -40 hhcurveto
          -38 -7 -15 -40 -7 hvcurveto
          -176 hlineto
          hintmask 000001000010000000000000
          161 callgsubr
          335 hlineto
          hintmask 000010000000000001000000
          -7 -42 -82 callgsubr
          12 70 rlineto
          hintmask 000001000100000010000000
          37 95 callsubr
          -500 hlineto
          hintmask 000000100000000000000000
          196 callsubr
          hintmask 000001001000000000000000
          -36 -6 30 -2 18 hhcurveto
          hintmask 000001000010000000000000
          43 hlineto
          hintmask 011000010001000010000000
          -76 -457 rlineto
          -43 -34 callgsubr
          378 hlineto
          -33 199 callsubr
          2 23 -12 14 -17 22 -21 -20 -40 -34 rrcurveto
          hintmask 101000000001010000000000
          -5 -8 111 callsubr
          63 202 callgsubr
        </CharString>
        <CharString name="Eogonekacute">
          207 callgsubr
          63 129 callgsubr
          40 callgsubr
          99 75 -28 85 -28 84 -71 85 -4 85 -81 84 -57 85 hintmask 001000000100000101000000
          -71 callgsubr
          hintmask 000100000010000010000000
          33 201 rlineto
          176 hlineto
          -41 -6 2 -15 38 hhcurveto
          40 5 26 23 4 hvcurveto
          hintmask 000100000001001000000000
          15 90 95 callgsubr
          -40 hhcurveto
          -38 -7 -15 -40 -7 hvcurveto
          -176 hlineto
          hintmask 000001000000100000000000
          161 callgsubr
          335 hlineto
          hintmask 000010000000000000010000
          -7 -42 -82 callgsubr
          12 70 rlineto
          hintmask 000001000001000000100000
          37 95 callsubr
          -500 hlineto
          hintmask 000000001000000000000000
          196 callsubr
          hintmask 000001000010000000000000
          -36 -6 30 -2 18 hhcurveto
          hintmask 000001000000100000000000
          43 hlineto
          hintmask 011000000100010000100000
          -76 -457 rlineto
          -43 -34 callgsubr
          378 hlineto
          -33 199 callsubr
          2 23 -12 14 -17 22 -21 -20 -40 -34 rrcurveto
          hintmask 101000000000010100000000
          -5 -8 111 callsubr
          63 hlineto
          39 11 11 38 6 hvcurveto
          hintmask 000000110000000000000000
          -89 709 -105 callgsubr
        </CharString>
        <CharString name="Epsilon">
          60 callgsubr
          15 callgsubr
          hintmask 1000100001000000
          -71 callgsubr
          hintmask 0100010010000000
          -82 callsubr
          hintmask 0100001000000000
          -176 hlineto
          hintmask 0010000100100000
          -77 callsubr
          hintmask 0010001000000000
          -500 hlineto
          hintmask 0001000000000000
          196 callsubr
          hintmask 0010010000000000
          -36 -6 30 -2 18 hhcurveto
          hintmask 0010000100000000
          43 hlineto
          hintmask 1000100000000000
          -71 callsubr
          endchar
        </CharString>
        <CharString name="Ereversed">
          60 callgsubr
          hstemhm
          69 85 2 85 38 85 143 85 -9 85 hintmask 10000010
          676 0 callsubr
          hintmask 01101101
          113 callsubr
          43 94 callgsubr
          -500 hlineto
          -40 -10 -12 -37 -6 hvcurveto
          -12 -70 175 callsubr
          42 hhcurveto
          41 5 26 23 4 hvcurveto
          7 42 rlineto
          335 hlineto
          -30 -179 rlineto
          -176 hlineto
          40 7 -3 15 -38 hhcurveto
          -40 -5 -26 -23 -4 hvcurveto
          -15 -90 rlineto
          -23 -4 -3 -26 40 hhcurveto
          38 8 15 41 6 hvcurveto
          176 hlineto
          hintmask 10010010
          -33 -201 rlineto
          -363 hlineto
          10 58 rlineto
          24 4 3 25 -42 hhcurveto
          -41 -6 -26 -23 -3 hvcurveto
          -15 -86 rlineto
          -38 -6 7 -11 39 hhcurveto
          528 hlineto
          138 callgsubr
          endchar
        </CharString>
        <CharString name="Eta">
          188 callgsubr
          82 callsubr
          hintmask 1000000010000000
          62 callgsubr
          hintmask 0010000001000000
          28 callsubr
          hintmask 0110010100000000
          -102 callgsubr
          -30 -178 rlineto
          -311 hlineto
          30 178 rlineto
          hintmask 0011001000000000
          -20 callsubr
          hintmask 1100101010000000
          -76 -457 -70 callgsubr
          endchar
        </CharString>
        <CharString name="Eth">
          6 callgsubr
        </CharString>
        <CharString name="Etilde">
          185 0 77 201 77 179 77 32 81 -68 81 -54 81 -67 80 15 callgsubr
          hintmask 1000000010000100
          -71 callgsubr
          hintmask 0100000001001000
          -82 callsubr
          hintmask 0100000000100000
          -176 hlineto
          hintmask 0010000000010010
          -77 callsubr
          hintmask 0010000000100000
          -500 hlineto
          hintmask 0000000100000000
          196 callsubr
          hintmask 0010000001000000
          -36 -6 30 -2 18 hhcurveto
          hintmask 0010000000010000
          43 hlineto
          hintmask 1000000010000000
          -71 callsubr
          hintmask 0000001000000000
          -25 688 -60 callsubr
        </CharString>
        <CharString name="Euro">
          142 -11 78 -61 78 121 78 46 78 120 78 -61 78 hstemhm
          111 85 -34 85 -82 85 -80 85 0 85 153 85 -44 85 -81 85 -68 85 -62 85 hintmask 1010000000001000
          604 26 rmoveto
          15 88 rlineto
          20 3 -14 17 -20 hhcurveto
          -12 hlineto
          -17 -17 -13 -21 -8 hvcurveto
          -41 -17 -54 -9 -47 hhcurveto
          -56 -47 26 42 -29 hvcurveto
          -15 21 -11 23 -6 26 rrcurveto
          222 hlineto
          15 12 8 12 6 hvcurveto
          8 16 rlineto
          hintmask 0010000100010000
          20 11 -12 22 -21 hhcurveto
          -246 hlineto
          hintmask 0001000010100100
          7 2 8 1 8 vhcurveto
          1 8 2 7 2 8 rrcurveto
          283 hlineto
          13 13 9 12 6 hvcurveto
          hintmask 0000000000010000
          8 15 rlineto
          hintmask 0001010000100010
          21 10 -11 21 -22 hhcurveto
          -269 hlineto
          15 25 18 23 21 21 rrcurveto
          42 43 57 26 56 hhcurveto
          47 50 -9 -41 3 hvcurveto
          -21 2 13 -13 17 hhcurveto
          12 hlineto
          20 20 17 20 3 hvcurveto
          15 88 rlineto
          20 3 -14 17 -20 hhcurveto
          hintmask 0000010000000001
          -4 hlineto
          hintmask 0000100000000100
          -12 -12 -6 -11 -9 hvcurveto
          -7 -8 rlineto
          hintmask 0000010000000000
          17 -34 -43 8 -44 hhcurveto
          hintmask 0001101000000000
          -78 -80 -36 -59 -61 hvcurveto
          -37 -35 -30 -41 -20 -44 rrcurveto
          hintmask 0001000010000000
          -31 hlineto
          -14 -14 -9 -12 -6 hvcurveto
          -8 -16 rlineto
          -20 -10 13 -21 20 hhcurveto
          hintmask 0011000001000000
          24 hlineto
          -2 -7 -3 -8 -1 -8 -1 -8 -1 -8 -1 -7 rrcurveto
          -17 hlineto
          hintmask 0010001000000000
          -14 -13 -10 -12 -6 hvcurveto
          -9 -15 rlineto
          -21 -9 12 -20 20 hhcurveto
          hintmask 0110000100000000
          37 hlineto
          6 -45 16 -41 25 -35 rrcurveto
          hintmask 1000000000000000
          -59 41 68 -36 78 hhcurveto
          44 46 8 17 39 hvcurveto
          hintmask 0100000000000000
          5 -8 rlineto
          hintmask 1000000000000000
          -11 5 10 -6 12 hhcurveto
          4 hlineto
          20 20 17 20 3 hvcurveto
          endchar
        </CharString>
        <CharString name="F">
          156 0 77 190 247 callgsubr
          hstemhm
          150 84 -52 84 -40 84 138 87 89 84 cntrmask 11100000
          hintmask 11101000
          708 492 rmoveto
          224 callsubr
          -486 hlineto
          -80 callsubr
          hintmask 11100100
          44 hlineto
          hintmask 11110000
          -40 callgsubr
          195 -68 callgsubr
          -67 hlineto
          hintmask 11101010
          32 190 rlineto
          170 hlineto
          -40 -6 1 -15 38 hhcurveto
          41 6 25 23 3 hvcurveto
          16 91 rlineto
          23 3 4 25 -41 hhcurveto
          -38 -7 -15 -40 -8 hvcurveto
          -170 hlineto
          hintmask 11100101
          32 190 rlineto
          321 hlineto
          182 callgsubr
          4 25 24 4 hvcurveto
          endchar
        </CharString>
        <CharString name="G">
          130 callsubr
          hstem
          251 callsubr
          vstem
          -102 callsubr
          endchar
        </CharString>
        <CharString name="Gacute">
          130 callsubr
          52 -21 148 -20 229 callgsubr
          hintmask 11100110
          -102 callsubr
          hintmask 00011000
          -164 517 -105 callgsubr
        </CharString>
        <CharString name="Gamma">
          223 callsubr
          285 85 hintmask 01100000
          680 492 rmoveto
          12 70 53 callgsubr
          -457 hlineto
          145 callgsubr
          195 149 callsubr
          -67 hlineto
          hintmask 01001100
          113 callsubr
          292 5 callsubr
          endchar
        </CharString>
        <CharString name="Gbreve">
          130 callsubr
          31 80 47 -20 229 callgsubr
          hintmask 11100110
          -102 callsubr
          hintmask 00011000
          -99 500 rmoveto
          24 4 -11 15 -25 hhcurveto
          -30 -8 -20 -15 -6 hvcurveto
          -12 -6 -62 0 -37 hhcurveto
          158 callsubr
          endchar
        </CharString>
        <CharString name="Gcaron">
          130 callsubr
          138 -20 229 callgsubr
          hintmask 11101100
          -102 callsubr
          hintmask 00010000
          -130 481 -98 callsubr
        </CharString>
        <CharString name="Gcedilla">
          237 callgsubr
          hstem
          110 85 157 94 177 85 vstem
          -102 callsubr
          -365 -329 -92 callsubr
        </CharString>
        <CharString name="Gcircumflex">
          130 callsubr
          42 -21 229 callgsubr
          hintmask 11101100
          -102 callsubr
          hintmask 00010000
          -136 441 -106 callgsubr
          endchar
        </CharString>
        <CharString name="Gcommaaccent">
          237 callgsubr
          hstemhm
          110 85 157 94 177 85 hintmask 01111010
          -102 callsubr
          hintmask 10000100
          -365 -329 -92 callsubr
        </CharString>
        <CharString name="Gdotaccent">
          130 callsubr
          32 114 hstemhm
          110 85 274 115 39 85 hintmask 11101010
          -102 callsubr
          hintmask 00010100
          -227 470 -66 callgsubr
        </CharString>
        <CharString name="H">
          188 callgsubr
          82 callsubr
          hintmask 1000000010000000
          62 callgsubr
          hintmask 0010000001000000
          28 callsubr
          hintmask 0110010100000000
          -102 callgsubr
          -30 -178 rlineto
          -311 hlineto
          30 178 rlineto
          hintmask 0011001000000000
          -20 callsubr
          hintmask 1100101010000000
          -76 -457 -70 callgsubr
          endchar
        </CharString>
        <CharString name="H_uni0303">
          0 77 202 77 178 77 32 81 -68 81 -54 81 -67 80 82 callsubr
          hintmask 1000000000001000
          62 callgsubr
          hintmask 0010000000000100
          28 callsubr
          hintmask 0110000001010000
          -102 callgsubr
          -30 -178 rlineto
          -311 hlineto
          30 178 rlineto
          hintmask 0010000100100000
          -20 callsubr
          hintmask 1100000010101000
          -76 -457 -70 callgsubr
          hintmask 0000001000000000
          -34 699 -60 callsubr
        </CharString>
        <CharString name="Hbar">
          0 77 202 77 59 77 42 77 hstemhm
          142 85 -76 85 -29 85 -72 85 -78 85 -42 85 183 85 -76 85 -29 85 -72 85 -78 85 hintmask 1000000000010000
          62 callgsubr
          hintmask 0010000000001000
          56 338 rlineto
          48 hlineto
          22 20 17 22 4 hvcurveto
          21 3 -14 17 -22 hhcurveto
          hintmask 0010000000000100
          -48 hlineto
          hintmask 0001000000000010
          7 42 rlineto
          44 117 callgsubr
          -172 hlineto
          hintmask 0001000000100000
          -102 callgsubr
          hintmask 0010000100000100
          -7 -42 rlineto
          -311 hlineto
          hintmask 0001000010000000
          7 42 rlineto
          hintmask 0001100001000000
          -20 callsubr
          hintmask 0010000100000000
          -7 -42 rlineto
          -48 hlineto
          -22 -20 -17 -21 -3 hvcurveto
          -22 -4 14 -17 22 hhcurveto
          hintmask 0010001000000000
          48 hlineto
          hintmask 1100010001010000
          -56 -338 -70 callgsubr
          -123 318 rmoveto
          -311 hlineto
          hintmask 0110001000001000
          10 59 266 callsubr
          endchar
        </CharString>
        <CharString name="Hbrevebelow">
          -213 80 47 -20 106 189 callgsubr
          82 callsubr
          hintmask 0010000000100000
          62 callgsubr
          hintmask 0000100000010000
          28 callsubr
          hintmask 0001100101000000
          -102 callgsubr
          -30 -178 rlineto
          -311 hlineto
          30 178 rlineto
          hintmask 0000110010000000
          -20 callsubr
          hintmask 0011001010100000
          -76 -457 -70 callgsubr
          hintmask 1100000000000000
          -177 -163 7 callgsubr
        </CharString>
        <CharString name="Hcircumflex">
          188 callgsubr
          53 -21 82 callsubr
          hintmask 1000000001000000
          62 callgsubr
          hintmask 0010000000100000
          28 callsubr
          hintmask 0110001010000000
          -102 callgsubr
          -30 -178 rlineto
          -311 hlineto
          30 178 rlineto
          hintmask 0010100100000000
          -20 callsubr
          hintmask 1100010101000000
          -76 -457 -70 callgsubr
          hintmask 0001000000000000
          -70 644 -106 callgsubr
          endchar
        </CharString>
        <CharString name="Hdieresis">
          188 callgsubr
          32 105 152 callsubr
          -42 85 -10 105 88 85 -81 105 -100 85 -9 85 hintmask 1000000000010000
          62 callgsubr
          hintmask 0010000000001000
          28 callsubr
          hintmask 0110001001000000
          -102 callgsubr
          -30 -178 rlineto
          -311 hlineto
          30 178 rlineto
          hintmask 0010100100000000
          -20 callsubr
          hintmask 1100010100010000
          -76 -457 -70 callgsubr
          hintmask 0001000010100000
          -266 657 -76 callgsubr
        </CharString>
        <CharString name="Hdotbelow">
          -194 114 80 189 callgsubr
          152 callsubr
          -42 85 -57 115 125 102 callsubr
          hintmask 0100000000100000
          62 callgsubr
          hintmask 0001000000010000
          28 callsubr
          hintmask 0011001001000000
          -102 callgsubr
          -30 -178 rlineto
          -311 hlineto
          30 178 rlineto
          hintmask 0001100100000000
          -20 callsubr
          hintmask 0110010100100000
          -76 -457 -70 callgsubr
          hintmask 1000000010000000
          -303 -175 -99 callsubr
        </CharString>
        <CharString name="I">
          127 callsubr
          173 callgsubr
          hintmask 10100000
          319 38 -67 callsubr
          -48 hlineto
          hintmask 01010000
          -83 callsubr
          hintmask 10100000
          -76 -457 rlineto
          -48 -101 callsubr
          181 -76 callsubr
          endchar
        </CharString>
        <CharString name="I_J">
          325 -11 77 -66 81 callgsubr
          173 callgsubr
          95 104 226 85 hintmask 01010000
          319 38 -67 callsubr
          -48 hlineto
          hintmask 00101000
          -83 callsubr
          hintmask 01110010
          -76 -457 rlineto
          -48 -101 callsubr
          181 -76 callsubr
          573 535 rmoveto
          36 6 -30 2 -19 hhcurveto
          -175 hlineto
          -19 -30 269 callgsubr
          70 hlineto
          -65 -389 rlineto
          hintmask 10100110
          -75 -12 -73 -4 -17 hhcurveto
          -7 -38 0 18 -23 hvcurveto
          4 5 3 7 2 12 rrcurveto
          28 5 233 callsubr
          -29 -17 -37 -6 hvcurveto
          -65 -11 58 -51 103 hhcurveto
          91 93 56 94 15 hvcurveto
          66 395 rlineto
          20 hlineto
          20 29 191 callgsubr
        </CharString>
        <CharString name="Iacute">
          -165 142 callsubr
          145 85 -9 85 hintmask 10001000
          319 38 -67 callsubr
          -48 hlineto
          hintmask 01000100
          -83 callsubr
          hintmask 10001000
          -76 -457 rlineto
          -48 -101 callsubr
          181 -76 callsubr
          hintmask 00110000
          95 720 -105 callgsubr
        </CharString>
        <CharString name="Ibreve">
          127 callsubr
          42 80 47 228 callgsubr
          hintmask 10001000
          319 38 -67 callsubr
          -48 hlineto
          hintmask 01000100
          -83 callsubr
          hintmask 10001000
          -76 -457 rlineto
          -48 -101 callsubr
          181 -76 callsubr
          hintmask 00110000
          160 703 rmoveto
          24 4 -11 15 -25 hhcurveto
          -30 -8 -20 -15 -6 hvcurveto
          -12 -6 -62 0 -37 hhcurveto
          158 callsubr
          endchar
        </CharString>
        <CharString name="Icaron">
          127 callsubr
          149 228 callgsubr
          hintmask 10010000
          319 38 -67 callsubr
          -48 hlineto
          hintmask 01001000
          -83 callsubr
          hintmask 10010000
          -76 -457 rlineto
          -48 -101 callsubr
          181 -76 callsubr
          hintmask 00100000
          129 684 -98 callsubr
        </CharString>
        <CharString name="Icircumflex">
          127 callsubr
          53 -21 173 callgsubr
          hintmask 10010000
          319 38 -67 callsubr
          -48 hlineto
          hintmask 01001000
          -83 callsubr
          hintmask 10010000
          -76 -457 rlineto
          -48 -101 callsubr
          181 -76 callsubr
          hintmask 00100000
          123 644 -106 callgsubr
          endchar
        </CharString>
        <CharString name="Idblgrave">
          127 callsubr
          63 -21 147 228 callgsubr
          hintmask 10001000
          319 38 -67 callsubr
          -48 hlineto
          hintmask 01000100
          -83 callsubr
          hintmask 10001000
          -76 -457 rlineto
          -48 -101 callsubr
          181 -76 callsubr
          hintmask 00110000
          143 661 -77 callgsubr
        </CharString>
        <CharString name="Idieresis">
          -165 227 callgsubr
          hstemhm
          141 105 -101 85 -9 85 32 105 hintmask 10001000
          319 38 -67 callsubr
          -48 hlineto
          hintmask 01000100
          -83 callsubr
          hintmask 10001000
          -76 -457 rlineto
          -48 -101 callsubr
          181 -76 callsubr
          hintmask 00110010
          -73 657 -76 callgsubr
        </CharString>
        <CharString name="Idieresisacute">
          -165 0 77 457 77 32 230 callsubr
          141 105 -101 85 -9 85 32 105 hintmask 1000001000000000
          319 38 -67 callsubr
          -48 hlineto
          hintmask 0100000100000000
          -83 callsubr
          hintmask 1000001000000000
          -76 -457 rlineto
          -48 -101 callsubr
          181 -76 callsubr
          hintmask 0011110010000000
          -73 657 -96 callsubr
          -6 199 -105 callgsubr
        </CharString>
        <CharString name="Idotaccent">
          127 callsubr
          43 114 173 callgsubr
          -70 115 hintmask 10010000
          319 38 -67 callsubr
          -48 hlineto
          hintmask 01001000
          -83 callsubr
          hintmask 10010000
          -76 -457 rlineto
          -48 -101 callsubr
          181 -76 callsubr
          hintmask 00100100
          32 673 -66 callgsubr
        </CharString>
        <CharString name="Idotbelow">
          -165 87 callsubr
          hstemhm
          94 115 -64 85 -9 85 hintmask 01001000
          319 38 -67 callsubr
          -48 hlineto
          hintmask 00100100
          -83 callsubr
          hintmask 01001000
          -76 -457 rlineto
          -48 -101 callsubr
          181 -76 callsubr
          hintmask 10010000
          -110 -175 -99 callsubr
        </CharString>
        <CharString name="Igrave">
          -165 142 callsubr
          145 85 -9 85 hintmask 10001000
          319 38 -67 callsubr
          -48 hlineto
          hintmask 01000100
          -83 callsubr
          hintmask 10001000
          -76 -457 rlineto
          -48 -101 callsubr
          181 -76 callsubr
          hintmask 00110000
          85 663 -81 callgsubr
        </CharString>
        <CharString name="Ihookabove">
          127 callsubr
          64 121 callgsubr
          145 85 -29 74 -54 85 -74 72 -58 72 -69 72 25 72 hintmask 1000010000000000
          319 38 -67 callsubr
          -48 hlineto
          hintmask 0100000100000000
          -83 callsubr
          hintmask 1000010000000000
          -76 -457 rlineto
          -48 -101 callsubr
          181 -76 callsubr
          hintmask 0000101000000000
          99 770 57 callsubr
          hintmask 0000000010000000
          -18 -3 10 -19 24 hhcurveto
          hintmask 0000001000000000
          174 callgsubr
          hintmask 0001100010010000
          61 callsubr
          hintmask 0000000000100000
          102 callgsubr
          rrcurveto
          hintmask 0010000001000000
          4 callgsubr
          hintmask 0001000000110000
          8 callsubr
        </CharString>
        <CharString name="Imacron">
          127 callsubr
          52 79 173 callgsubr
          hintmask 10010000
          319 38 -67 callsubr
          -48 hlineto
          hintmask 01001000
          -83 callsubr
          hintmask 10010000
          -76 -457 rlineto
          -48 -101 callsubr
          181 -76 callsubr
          hintmask 00100000
          166 664 -74 callsubr
        </CharString>
        <CharString name="Imacron.alt">
          127 callsubr
          52 79 173 callgsubr
          hintmask 10010000
          319 38 -67 callsubr
          -48 hlineto
          hintmask 01001000
          -83 callsubr
          hintmask 10010000
          -76 -457 rlineto
          -48 -101 callsubr
          181 -76 callsubr
          hintmask 00110000
          78 664 147 callgsubr
        </CharString>
        <CharString name="Iogonek">
          -165 153 callsubr
          120 81 callgsubr
          hstemhm
          82 75 -12 85 -84 85 -10 85 hintmask 00100100
          319 38 -67 callsubr
          -48 hlineto
          hintmask 00010001
          -83 callsubr
          hintmask 00100100
          -76 -457 rlineto
          -48 -101 callsubr
          hintmask 00100010
          62 hlineto
          hintmask 01001000
          154 callsubr
          hintmask 10001000
          -5 -8 -6 -2 -7 hhcurveto
          -14 -18 11 18 3 hvcurveto
          hintmask 00100010
          6 41 30 38 38 19 rrcurveto
          34 -76 callsubr
          endchar
        </CharString>
        <CharString name="Iogonekacute">
          -165 153 callsubr
          120 132 callgsubr
          82 75 -12 85 -84 85 -10 85 hintmask 0010000100000000
          319 38 -67 callsubr
          -48 hlineto
          hintmask 0001000001000000
          -83 callsubr
          hintmask 0010000100000000
          -76 -457 rlineto
          -48 -101 callsubr
          hintmask 0010000010000000
          62 hlineto
          hintmask 0100001000000000
          154 callsubr
          hintmask 1000001000000000
          -5 -8 -6 -2 -7 hhcurveto
          -14 -18 11 18 3 hvcurveto
          hintmask 0010000010000000
          6 41 30 38 38 19 rrcurveto
          34 -76 callsubr
          hintmask 0000110000000000
          95 720 -105 callgsubr
        </CharString>
        <CharString name="Iota">
          127 callsubr
          173 callgsubr
          hintmask 10100000
          319 38 -67 callsubr
          -48 hlineto
          hintmask 01010000
          -83 callsubr
          hintmask 10100000
          -76 -457 rlineto
          -48 -101 callsubr
          181 -76 callsubr
          endchar
        </CharString>
        <CharString name="Itilde">
          -165 86 callgsubr
          145 85 -9 85 hintmask 10000010
          319 38 -67 callsubr
          -48 hlineto
          hintmask 01000001
          -83 callsubr
          hintmask 10000010
          -76 -457 rlineto
          -48 -101 callsubr
          181 -76 callsubr
          hintmask 00000100
          159 699 -68 callsubr
        </CharString>
        <CharString name="J">
          10 -11 265 callgsubr
          86 104 226 85 vstem
          -40 callsubr
          endchar
        </CharString>
        <CharString name="J_uni030C.cap">
          10 -11 77 375 -21 114 77 hstem
          86 104 226 85 vstem
          -40 callsubr
          138 -35 15 callsubr
        </CharString>
        <CharString name="Jacute">
          10 -11 77 468 203 callgsubr
          86 104 226 85 hintmask 11001100
          -40 callsubr
          hintmask 00110000
          9 185 -105 callgsubr
        </CharString>
        <CharString name="Jcircumflex">
          10 132 callsubr
          53 -21 hstemhm
          86 104 226 85 hintmask 11011000
          -40 callsubr
          hintmask 00100000
          37 109 -106 callgsubr
          endchar
        </CharString>
        <CharString name="K">
          273 183 callgsubr
          158 72 4 72 vstem
          -73 callsubr
          endchar
        </CharString>
        <CharString name="Kappa">
          273 183 callgsubr
          158 72 4 72 vstem
          -73 callsubr
          endchar
        </CharString>
        <CharString name="Kcedilla">
          273 99 callsubr
          hstem
          158 72 4 72 31 94 vstem
          -73 callsubr
          -317 -126 -92 callsubr
        </CharString>
        <CharString name="Kcommaaccent">
          273 99 callsubr
          hstemhm
          158 72 4 72 31 94 hintmask 01111000
          -73 callsubr
          hintmask 10000100
          -317 -126 -92 callsubr
        </CharString>
        <CharString name="L">
          223 callsubr
          226 85 hintmask 10010100
          -23 callsubr
          hintmask 01001000
          113 callsubr
          67 112 callgsubr
          -29 1 -19 hhcurveto
          -195 hlineto
          hintmask 01100000
          145 callgsubr
          457 202 callgsubr
        </CharString>
        <CharString name="L_uni0303">
          127 86 callgsubr
          140 102 callsubr
          226 85 hintmask 1000000101000000
          -23 callsubr
          hintmask 0100000010000000
          113 callsubr
          67 112 callgsubr
          -29 1 -19 hhcurveto
          -195 hlineto
          hintmask 0100001000000000
          -102 callgsubr
          hintmask 1000000100000000
          -72 callgsubr
          457 hlineto
          39 11 11 38 6 hvcurveto
          hintmask 0000010000000000
          17 688 -59 callgsubr
        </CharString>
        <CharString name="Lacute">
          127 142 callsubr
          140 102 callsubr
          226 85 hintmask 10000101
          -23 callsubr
          hintmask 01000010
          113 callsubr
          67 112 callgsubr
          -29 1 -19 hhcurveto
          -195 hlineto
          hintmask 01001000
          -102 callgsubr
          hintmask 10000100
          -72 callgsubr
          457 hlineto
          39 11 11 38 6 hvcurveto
          hintmask 00110000
          -47 709 -105 callgsubr
        </CharString>
        <CharString name="Lambda">
          185 0 77 546 -20 hstem
          665 38 -67 callsubr
          -27 hlineto
          -81 508 rlineto
          37 -7 -26 1 -20 hhcurveto
          -19 hlineto
          -20 -26 -1 -37 -19 hvcurveto
          -251 -508 rlineto
          -27 -101 callsubr
          145 -68 callgsubr
          -28 hlineto
          218 443 71 -443 rlineto
          -28 -101 callsubr
          145 -76 callsubr
          endchar
        </CharString>
        <CharString name="Lcaron">
          127 0 77 364 -21 114 77 hstemhm
          140 102 callsubr
          226 85 hintmask 10001010
          -37 callsubr
          hintmask 11101000
          -72 callgsubr
          457 hlineto
          39 11 11 38 6 hvcurveto
          -17 489 15 callsubr
        </CharString>
        <CharString name="Lcedilla">
          127 -185 -21 206 247 callsubr
          -46 94 178 70 callsubr
          hintmask 11001010
          -72 callgsubr
          457 hlineto
          39 11 11 38 6 hvcurveto
          -248 -137 -92 callsubr
        </CharString>
        <CharString name="Lcommaaccent">
          127 -185 -21 206 247 callsubr
          -46 94 178 42 callgsubr
          -248 -137 -92 callsubr
        </CharString>
        <CharString name="Ldot">
          127 267 callsubr
          140 102 callsubr
          184 115 -73 85 hintmask 10001001
          -37 callsubr
          hintmask 11001010
          -72 callgsubr
          457 hlineto
          39 11 11 38 6 hvcurveto
          3 268 103 callsubr
        </CharString>
        <CharString name="Ldotbelow">
          127 -194 114 80 247 callsubr
          -70 115 181 42 callgsubr
          -251 -186 -99 callsubr
        </CharString>
        <CharString name="Ldotbelowmacron">
          127 87 callsubr
          52 79 hstemhm
          140 102 callsubr
          -70 115 181 85 hintmask 0100010010000000
          -23 callsubr
          hintmask 0010001000000000
          113 callsubr
          67 112 callgsubr
          -29 1 -19 hhcurveto
          -195 hlineto
          hintmask 0010100000000000
          -102 callgsubr
          hintmask 1100010100000000
          -72 callgsubr
          457 hlineto
          39 11 11 38 6 hvcurveto
          -251 -186 rmoveto
          -92 callgsubr
          28 29 5 hvcurveto
          hintmask 0001000000000000
          145 839 -74 callsubr
        </CharString>
        <CharString name="Lslash">
          127 211 callgsubr
          93 85 -38 102 callsubr
          226 85 hintmask 10001010
          -23 callsubr
          37 224 213 133 19 12 7 22 -7 17 rlinecurve
          -8 20 -22 5 -20 -13 -167 -105 rcurveline
          hintmask 01000100
          24 142 rlineto
          67 112 callgsubr
          -29 1 -19 hhcurveto
          -195 hlineto
          hintmask 01010000
          -102 callgsubr
          -32 -194 -71 -46 -18 -12 -14 -18 13 -22 rlinecurve
          13 -20 18 -4 21 15 rrcurveto
          hintmask 00100000
          23 16 rlineto
          hintmask 10001000
          -29 -172 rlineto
          -43 hlineto
          196 callsubr
          hintmask 10100000
          -37 -6 29 -1 19 hhcurveto
          457 202 callgsubr
        </CharString>
        <CharString name="M">
          418 183 callgsubr
          160 72 494 72 vstem
          -53 callgsubr
          endchar
        </CharString>
        <CharString name="Mdotbelow">
          418 87 callsubr
          hstemhm
          160 72 154 115 225 72 hintmask 01110100
          -53 callgsubr
          hintmask 10001000
          -381 -175 -99 callsubr
        </CharString>
        <CharString name="Mu">
          418 183 callgsubr
          160 72 494 72 vstem
          -53 callgsubr
          endchar
        </CharString>
        <CharString name="N">
          183 callgsubr
          158 72 399 72 vstem
          -98 callgsubr
          endchar
        </CharString>
        <CharString name="Nacute">
          142 callsubr
          158 72 399 72 hintmask 11001100
          -98 callgsubr
          hintmask 00110000
          -180 186 -105 callgsubr
        </CharString>
        <CharString name="Ncaron">
          78 callsubr
          149 -20 hstemhm
          158 72 399 72 hintmask 11011000
          -98 callgsubr
          hintmask 00100000
          -146 150 -98 callsubr
        </CharString>
        <CharString name="Ncedilla">
          99 callsubr
          hstem
          158 72 93 94 212 72 vstem
          -98 callgsubr
          -381 -660 -92 callsubr
        </CharString>
        <CharString name="Ncommaaccent">
          99 callsubr
          hstemhm
          158 72 93 94 212 72 hintmask 01110100
          -98 callgsubr
          hintmask 10001000
          -381 -660 -92 callsubr
        </CharString>
        <CharString name="Ndotaccent">
          78 callsubr
          32 114 hstemhm
          158 72 208 115 76 72 hintmask 11010100
          -98 callgsubr
          hintmask 00101000
          -245 128 -66 callgsubr
        </CharString>
        <CharString name="Ndotbelow">
          87 callsubr
          hstemhm
          158 72 68 115 216 72 hintmask 01110100
          -98 callgsubr
          hintmask 10001000
          -385 -709 -99 callsubr
        </CharString>
        <CharString name="Ntilde">
          86 callgsubr
          158 72 399 72 hintmask 11000011
          -98 callgsubr
          hintmask 00000100
          -116 165 -68 callsubr
        </CharString>
        <CharString name="Nu">
          183 callgsubr
          158 72 399 72 vstem
          -98 callgsubr
          endchar
        </CharString>
        <CharString name="O">
          91 callgsubr
          hstem
          -104 callgsubr
          endchar
        </CharString>
        <CharString name="OE">
          -35 callsubr
        </CharString>
        <CharString name="OE.dup">
          -35 callsubr
        </CharString>
        <CharString name="Oacute">
          302 261 callgsubr
          148 -20 hstemhm
          hintmask 11000000
          -104 callgsubr
          hintmask 00110000
          -78 441 -105 callgsubr
        </CharString>
        <CharString name="Obreve">
          91 callgsubr
          31 267 callgsubr
          hintmask 11000000
          -104 callgsubr
          hintmask 00110000
          -13 424 rmoveto
          24 4 -11 15 -25 hhcurveto
          -30 -8 -20 -15 -6 hvcurveto
          -12 -6 -62 0 -37 hhcurveto
          158 callsubr
          endchar
        </CharString>
        <CharString name="Ocaron">
          91 callgsubr
          138 -20 -7 callgsubr
          -44 405 -98 callsubr
        </CharString>
        <CharString name="Ocircumflex">
          91 callgsubr
          42 -21 -7 callgsubr
          -50 365 -106 callgsubr
          endchar
        </CharString>
        <CharString name="Ocircumflexacute">
          91 callgsubr
          42 -21 284 -20 hstemhm
          hintmask 11000000
          -104 callgsubr
          hintmask 00110000
          -50 365 -106 callgsubr
          -7 202 -105 callgsubr
        </CharString>
        <CharString name="Ocircumflexdotbelow">
          302 226 callgsubr
          42 -21 hstemhm
          328 115 hintmask 01110000
          -104 callgsubr
          -50 365 -106 callgsubr
          hintmask 10001000
          -232 -819 -99 callsubr
        </CharString>
        <CharString name="Ocircumflexgrave">
          91 callgsubr
          42 -21 -7 callgsubr
          -50 365 -106 callgsubr
          -16 145 -11 callsubr
          16 -7 11 -7 -3 -22 rlinecurve
          endchar
        </CharString>
        <CharString name="Ocircumflexhookabove">
          91 callgsubr
          42 -21 200 167 callgsubr
          606 229 callsubr
          0 72 hintmask 1100000000000000
          -104 callgsubr
          hintmask 0010000010000000
          -50 365 -106 callgsubr
          103 231 rmoveto
          hintmask 0001101001000000
          -67 callgsubr
          3 hvcurveto
          hintmask 0000000100000000
          102 callgsubr
          rrcurveto
          hintmask 0000010000000000
          4 callgsubr
          hintmask 0001000101000000
          110 callgsubr
        </CharString>
        <CharString name="Ocircumflextilde">
          91 callgsubr
          42 -21 115 81 -40 -21 callsubr
          hintmask 11000000
          -104 callgsubr
          hintmask 00110001
          -50 365 -106 callgsubr
          62 211 52 callsubr
          hintmask 00000010
          -13 -8 -5 -8 -10 hvcurveto
          hintmask 00001000
          -17 callsubr
          hintmask 00010001
          140 callsubr
          hintmask 00001000
          112 callsubr
          hintmask 00000100
          54 callgsubr
          hintmask 00000001
          21 callsubr
          hintmask 00001000
          -62 callsubr
          hintmask 00000100
          23 16 35 55 callsubr
        </CharString>
        <CharString name="Odblgrave">
          302 261 callgsubr
          147 -20 hstemhm
          hintmask 11000000
          -104 callgsubr
          hintmask 00110000
          -30 382 -77 callgsubr
        </CharString>
        <CharString name="Odieresis">
          91 callgsubr
          21 105 hstemhm
          374 105 92 105 hintmask 11000000
          -104 callgsubr
          hintmask 00111000
          -246 378 -76 callgsubr
        </CharString>
        <CharString name="Odotbelow">
          302 226 callgsubr
          hstemhm
          328 115 hintmask 01100000
          -104 callgsubr
          hintmask 10010000
          -282 -454 -99 callsubr
        </CharString>
        <CharString name="Ograve">
          302 261 callgsubr
          148 -20 hstemhm
          hintmask 11000000
          -104 callgsubr
          hintmask 00110000
          -88 384 -81 callgsubr
        </CharString>
        <CharString name="Ohookabove">
          91 callgsubr
          53 121 callgsubr
          435 171 callsubr
          hintmask 1100000000000000
          -104 callgsubr
          hintmask 0000110000000000
          -73 491 57 callsubr
          hintmask 0000001000000000
          -18 -3 10 -19 24 hhcurveto
          hintmask 0000010000000000
          174 callgsubr
          hintmask 0001101001000000
          61 callsubr
          hintmask 0000000010000000
          102 callgsubr
          rrcurveto
          hintmask 0010000100000000
          4 callgsubr
          hintmask 0001000011000000
          8 callsubr
        </CharString>
        <CharString name="Ohorn">
          301 68 callgsubr
          86 -20 hstem
          655 86 vstem
          -90 callgsubr
          endchar
        </CharString>
        <CharString name="Ohornacute">
          301 261 callgsubr
          55 -20 113 -20 hstemhm
          655 86 hintmask 11010100
          -90 callgsubr
          hintmask 00101000
          -105 440 -105 callgsubr
        </CharString>
        <CharString name="Ohorndotbelow">
          301 226 callgsubr
          86 -20 hstemhm
          327 115 213 86 hintmask 01110100
          -90 callgsubr
          hintmask 10001000
          -281 -455 -99 callsubr
        </CharString>
        <CharString name="Ohorngrave">
          301 261 callgsubr
          55 -20 113 -20 hstemhm
          655 86 hintmask 11010100
          -90 callgsubr
          hintmask 00101000
          -86 383 -81 callgsubr
        </CharString>
        <CharString name="Ohornhookabove">
          301 68 callgsubr
          53 -21 54 -20 50 167 callgsubr
          435 171 callsubr
          3 86 hintmask 1101000000010000
          -90 callgsubr
          hintmask 0000011000000000
          -71 490 57 callsubr
          hintmask 0000000100000000
          -18 -3 10 -19 24 hhcurveto
          hintmask 0000001000000000
          174 callgsubr
          hintmask 0000110100100000
          61 callsubr
          hintmask 0000000001000000
          102 callgsubr
          rrcurveto
          hintmask 0010000010000000
          133 callsubr
        </CharString>
        <CharString name="Ohorntilde">
          301 68 callgsubr
          21 -21 callsubr
          655 86 hintmask 11000010
          -90 callgsubr
          hintmask 00000100
          -41 419 -68 callsubr
        </CharString>
        <CharString name="Ohungarumlaut">
          302 261 callgsubr
          147 -20 hstemhm
          hintmask 11000000
          -104 callgsubr
          hintmask 00110000
          -199 440 rmoveto
          -19 callsubr
          205 hmoveto
          -19 callsubr
          endchar
        </CharString>
        <CharString name="Omacron">
          91 callgsubr
          41 79 -7 callgsubr
          -7 385 -74 callsubr
        </CharString>
        <CharString name="Omega">
          -3 callgsubr
        </CharString>
        <CharString name="Omicron">
          91 callgsubr
          hstem
          -104 callgsubr
          endchar
        </CharString>
        <CharString name="Oogonek">
          302 153 callsubr
          109 109 callgsubr
          hstemhm
          309 75 hintmask 01011000
          71 callgsubr
          hintmask 10111000
          69 callsubr
          endchar
        </CharString>
        <CharString name="Oogonekacute">
          302 153 callsubr
          109 109 callgsubr
          52 119 callsubr
          309 75 hintmask 01010010
          71 callgsubr
          hintmask 10110010
          69 callsubr
          hintmask 00001100
          -78 441 -105 callgsubr
        </CharString>
        <CharString name="Orogate">
          302 808 305 rmoveto
          27 161 -111 137 -174 17 18 113 rcurveline
          21 -17 17 -21 -19 -15 -14 -18 -3 vhcurveto
          -20 -119 -182 -17 -155 -139 -26 -158 rlinecurve
          -27 -161 111 -137 174 -17 -18 -113 256 callgsubr
          20 119 182 17 155 139 26 158 rlinecurve
          -83 12 rmoveto
          -137 -23 -135 -114 -148 hhcurveto
          -148 -97 115 136 23 hvcurveto
          124 21 134 104 147 hhcurveto
          147 100 -104 -124 -21 hvcurveto
          endchar
        </CharString>
        <CharString name="Oslash">
          302 -62 -21 72 109 callgsubr
          72 -20 hstem
          110 70 558 70 vstem
          -57 callsubr
          endchar
        </CharString>
        <CharString name="Oslash.dup">
          302 -62 -21 72 109 callgsubr
          72 -20 hstem
          110 70 558 70 vstem
          -57 callsubr
          endchar
        </CharString>
        <CharString name="Oslashacute">
          302 -62 -21 72 109 callgsubr
          52 -21 41 -20 127 -20 hstemhm
          110 70 558 70 hintmask 11101011
          -57 callsubr
          hintmask 00010100
          -91 452 -105 callgsubr
        </CharString>
        <CharString name="Otilde">
          91 callgsubr
          21 -21 callsubr
          hintmask 11000000
          -104 callgsubr
          hintmask 00000100
          -14 420 -68 callsubr
        </CharString>
        <CharString name="P">
          17 callsubr
        </CharString>
        <CharString name="Phi">
          0 77 73 77 157 77 73 77 hstemhm
          109 81 159 85 -73 85 -33 85 -73 85 159 81 hintmask 0010000100000000
          750 305 rmoveto
          15 89 -134 60 -133 7 rrcurveto
          hintmask 0001000010000000
          12 73 rlineto
          67 117 callgsubr
          -219 hlineto
          -80 callsubr
          67 hlineto
          hintmask 0010100100000000
          -12 -73 -139 -7 -151 -63 -14 -85 rlinecurve
          hintmask 0100001000000000
          -15 -89 134 -60 133 -7 rrcurveto
          hintmask 1000010000000000
          -12 -73 rlineto
          -67 -75 callsubr
          219 65 callgsubr
          -67 hlineto
          hintmask 0110101001000000
          12 73 139 7 151 63 14 85 rlinecurve
          -380 -78 rmoveto
          -65 3 -124 19 9 57 9 54 126 21 71 3 rrcurveto
          273 -78 rmoveto
          -9 -57 -132 -19 -65 -3 26 157 rcurveline
          70 -3 119 -21 -9 -54 rrcurveto
          endchar
        </CharString>
        <CharString name="Pi">
          0 77 457 77 152 callsubr
          235 85 -9 85 hintmask 10000100
          62 callgsubr
          hintmask 01100010
          76 457 rlineto
          44 117 callgsubr
          -569 -28 callgsubr
          hintmask 10010000
          72 callgsubr
          hintmask 01001010
          76 457 266 callsubr
          hintmask 10000100
          -76 -457 -65 callgsubr
          endchar
        </CharString>
        <CharString name="Psi">
          302 0 77 73 77 307 77 hstemhm
          379 85 -73 85 -72 85 -34 85 160 85 hintmask 01000101
          832 448 rmoveto
          38 6 -30 1 -15 hhcurveto
          -49 -26 -22 -16 -18 hvcurveto
          -35 -29 -7 -38 -6 -26 -18 -84 -71 -36 -74 -9 rrcurveto
          hintmask 00100010
          51 307 rlineto
          67 117 callgsubr
          -219 hlineto
          -18 -29 -1 -37 -6 hvcurveto
          -38 -7 254 callgsubr
          67 hlineto
          hintmask 01000100
          -51 -307 -79 10 -52 40 10 82 rlinecurve
          105 13 -67 23 -44 hhcurveto
          -14 -31 254 callsubr
          -5 -30 24 -7 29 -7 22 -11 -4 -23 -3 -20 -5 -42 14 -65 36 -34 rrcurveto
          hintmask 01001000
          46 -41 48 -12 55 -6 rrcurveto
          hintmask 10010000
          -12 -73 155 callgsubr
          hintmask 01001001
          12 73 128 12 106 66 26 124 rlinecurve
          4 20 6 31 39 6 26 4 17 11 4 24 rrcurveto
          endchar
        </CharString>
        <CharString name="Q">
          302 -114 -21 61 77 -14 77 28 77 374 77 hstemhm
          110 85 211 85 232 85 hintmask 00101110
          808 305 rmoveto
          173 29 -129 144 -196 hhcurveto
          -198 -176 222 callsubr
          29 34 3 10 41 hvcurveto
          hintmask 11010011
          2 1 8 -12 79 -106 rlineto
          -20 14 10 0 23 hhcurveto
          20 20 3 22 4 hvcurveto
          1 8 -10 17 -8 11 -80 108 rcurveline
          167 88 39 128 9 55 rrcurveto
          -85 1 rmoveto
          -15 -91 -70 -81 -90 -40 -37 46 -12 20 -8 11 rrcurveto
          11 -12 -1 2 -25 hhcurveto
          -29 -12 -2 -32 -5 hvcurveto
          57 -81 rlineto
          hintmask 00101101
          -24 -3 -21 0 0 vvcurveto
          165 callsubr
          endchar
        </CharString>
        <CharString name="R">
          -85 callsubr
          endchar
        </CharString>
        <CharString name="Racute">
          -85 callsubr
          hintmask 1110000100000000
          2 319 -105 callgsubr
        </CharString>
        <CharString name="Rcaron">
          -85 callsubr
          hintmask 1110000000000000
          36 283 -98 callsubr
        </CharString>
        <CharString name="Rcedilla">
          12 callgsubr
          2 94 116 -89 callgsubr
          hintmask 1110010101000000
          32 190 rlineto
          123 hlineto
          99 92 -37 -58 -10 hvcurveto
          -199 -527 -92 callsubr
        </CharString>
        <CharString name="Rcommaaccent">
          12 callgsubr
          2 94 116 -89 callgsubr
          hintmask 1110010001000000
          32 190 rlineto
          123 hlineto
          99 92 -37 -58 -10 hvcurveto
          hintmask 1110000100000000
          -199 -527 -92 callsubr
        </CharString>
        <CharString name="Rdblgrave">
          -85 callsubr
          hintmask 1110000000000000
          21 260 -77 callgsubr
        </CharString>
        <CharString name="Rdotaccent">
          12 callgsubr
          119 115 -22 -89 callgsubr
          hintmask 1110010001000000
          32 190 rlineto
          123 hlineto
          99 92 -37 -58 -10 hvcurveto
          hintmask 1110000100000000
          -61 272 -66 callgsubr
        </CharString>
        <CharString name="Rdotbelow">
          12 callgsubr
          -23 115 120 -89 callgsubr
          hintmask 1110010001000000
          32 190 rlineto
          123 hlineto
          99 92 -37 -58 -10 hvcurveto
          hintmask 1110000100000000
          -203 -576 -99 callsubr
        </CharString>
        <CharString name="Rdotbelowmacron">
          12 callgsubr
          -23 115 120 -89 callgsubr
          hintmask 1110010001000000
          32 190 rlineto
          123 hlineto
          99 92 -37 -58 -10 hvcurveto
          -203 -576 rmoveto
          31 5 -21 26 -31 hhcurveto
          hintmask 1110000100000000
          148 callgsubr
          hintmask 1110000000000000
          276 839 -74 callsubr
        </CharString>
        <CharString name="Rho">
          17 callsubr
        </CharString>
        <CharString name="S">
          68 231 callsubr
          227 callsubr
          vstem
          554 170 rmoveto
          -97 callgsubr
          endchar
        </CharString>
        <CharString name="S_S">
          652 231 callsubr
          132 81 381 81 381 81 cntrmask 00111000
          554 170 rmoveto
          -97 callgsubr
          583 hmoveto
          -97 callgsubr
          endchar
        </CharString>
        <CharString name="Sacute">
          68 261 callgsubr
          148 -20 hstemhm
          227 callsubr
          hintmask 11001110
          554 170 rmoveto
          -97 callgsubr
          hintmask 00110000
          -24 588 -105 callgsubr
        </CharString>
        <CharString name="Scaron">
          68 68 callgsubr
          138 -20 hstemhm
          227 callsubr
          hintmask 11011100
          554 170 rmoveto
          -97 callgsubr
          hintmask 00100000
          10 552 -98 callsubr
        </CharString>
        <CharString name="Scedilla">
          68 -202 78 30 77 6 109 callgsubr
          hstemhm
          84 81 -33 81 61 81 -80 80 -67 81 -23 81 -81 84 43 81 -40 80 hintmask 0000000001000000
          554 170 rmoveto
          14 82 -53 72 -88 20 rrcurveto
          hintmask 0000010010000000
          -139 30 -23 5 -61 23 9 56 rlinecurve
          hintmask 0001000100001000
          45 8 58 42 76 hhcurveto
          96 33 -48 -62 2 hvcurveto
          -21 -1 1 -18 35 144 callgsubr
          22 128 rlineto
          20 3 3 29 -36 hhcurveto
          -23 -6 -5 -39 -21 hvcurveto
          hintmask 0011010010010000
          37 -44 -63 7 -38 hhcurveto
          -127 -96 -83 -85 -14 hvcurveto
          -9 -52 21 -37 19 -23 35 -38 34 -7 87 -19 40 -9 rcurveline
          56 -12 14 -3 26 -26 rrcurveto
          0 24 -24 -6 -38 vhcurveto
          -49 -8 -56 -51 -83 hhcurveto
          -51 -46 11 15 -24 hvcurveto
          -29 20 -11 22 4 41 rrcurveto
          17 2 3 23 -39 hhcurveto
          hintmask 0010100100000000
          -42 -5 96 callgsubr
          -22 -128 rlineto
          -20 -3 -4 -29 37 hhcurveto
          22 8 8 34 19 hvcurveto
          40 -27 52 -11 42 -2 rrcurveto
          hintmask 0100001000000000
          -1 -8 197 callgsubr
          rlinecurve
          hintmask 1100100001000000
          12 callsubr
          hintmask 0000000000110000
          86 130 4 103 17 hvcurveto
          8 45 -22 31 -34 17 97 25 63 74 12 73 rrcurveto
          endchar
        </CharString>
        <CharString name="Scircumflex">
          68 68 callgsubr
          42 -21 hstemhm
          227 callsubr
          hintmask 11011100
          554 170 rmoveto
          -97 callgsubr
          hintmask 00100000
          4 512 -106 callgsubr
          endchar
        </CharString>
        <CharString name="Sdotbelow">
          68 226 callgsubr
          hstemhm
          132 81 -2 115 -38 81 104 81 hintmask 00110110
          554 170 rmoveto
          14 82 -53 72 -88 20 -139 30 rcurveline
          -23 5 -61 23 9 56 rrcurveto
          45 8 58 42 76 hhcurveto
          96 33 -48 -62 2 hvcurveto
          -21 -1 1 -18 35 144 callgsubr
          22 128 rlineto
          20 3 3 29 -36 hhcurveto
          -23 -6 -5 -39 -21 hvcurveto
          37 -44 -63 7 -38 hhcurveto
          -127 -96 -83 -85 -14 hvcurveto
          -9 -52 21 -37 19 -23 35 -38 34 -7 87 -19 40 -9 rcurveline
          56 -12 14 -3 26 -26 rrcurveto
          0 24 -24 -6 -38 vhcurveto
          hintmask 01001010
          -49 -8 -56 -51 -83 hhcurveto
          -51 -46 11 15 -24 hvcurveto
          -29 20 -11 22 4 41 rrcurveto
          17 2 3 23 -39 hhcurveto
          -42 -5 96 callgsubr
          -22 -128 rlineto
          -20 -3 -4 -29 37 hhcurveto
          22 8 8 34 19 hvcurveto
          -36 51 76 -6 44 hhcurveto
          135 93 93 88 14 hvcurveto
          hintmask 10001000
          -228 -307 -99 callsubr
        </CharString>
        <CharString name="Sigma">
          0 79 455 77 hstemhm
          634 85 -23 85 hintmask 11100000
          707 49 rmoveto
          12 72 166 callsubr
          -5 96 callgsubr
          -7 -42 rlineto
          -420 hlineto
          198 196 rlineto
          18 17 1 13 0 vvcurveto
          2 13 -4 8 -7 9 -137 199 rcurveline
          425 hlineto
          hintmask 11010000
          -7 -42 -82 callgsubr
          12 70 rlineto
          37 95 callsubr
          -544 hlineto
          -19 -30 -1 -38 -7 hvcurveto
          -2 -13 4 -6 6 -11 163 -237 rcurveline
          -241 -240 -11 -11 -6 -6 -2 -12 rlinecurve
          -34 -6 33 -2 16 hhcurveto
          544 202 callgsubr
        </CharString>
        <CharString name="T">
          211 callgsubr
          121 85 143 85 -9 85 205 85 hintmask 01101000
          -59 callsubr
          hintmask 10010000
          -32 callgsubr
          hintmask 01001100
          -1 callsubr
          endchar
        </CharString>
        <CharString name="T_uni0303">
          86 callgsubr
          121 85 143 85 -9 85 205 85 hintmask 0100001010000000
          -59 callsubr
          hintmask 1000000100000000
          -32 callgsubr
          hintmask 0100000011000000
          -1 callsubr
          hintmask 0000010000000000
          -118 245 -59 callgsubr
        </CharString>
        <CharString name="T_uni0308">
          227 callgsubr
          hstemhm
          121 85 139 105 -101 85 -9 85 32 105 68 85 hintmask 0101001000000000
          -59 callsubr
          hintmask 1000010000000000
          -32 callgsubr
          hintmask 0100001010000000
          -1 callsubr
          hintmask 0010100100000000
          -350 203 -76 callgsubr
        </CharString>
        <CharString name="Tau">
          211 callgsubr
          121 85 143 85 -9 85 205 85 hintmask 01101000
          -59 callsubr
          hintmask 10010000
          -32 callgsubr
          hintmask 01001100
          -1 callsubr
          endchar
        </CharString>
        <CharString name="Tcaron">
          78 callsubr
          149 -20 hstemhm
          121 85 143 85 -9 85 205 85 hintmask 01010100
          -59 callsubr
          hintmask 10001000
          -32 callgsubr
          hintmask 01000110
          -1 callsubr
          hintmask 00100000
          -148 230 -98 callsubr
        </CharString>
        <CharString name="Tcedilla">
          -205 78 29 78 20 81 callgsubr
          hstemhm
          121 85 143 85 -29 84 -64 85 205 85 hintmask 0001100100000000
          -59 callsubr
          hintmask 0110010000000000
          -76 -457 rlineto
          -81 hlineto
          -17 -32 -2 234 callgsubr
          30 -1 19 hhcurveto
          81 hlineto
          -3 -20 197 callgsubr
          rlinecurve
          hintmask 1110001000000000
          12 callsubr
          85 131 4 103 17 hvcurveto
          8 49 -27 33 -40 16 rrcurveto
          72 hlineto
          17 32 84 callgsubr
          hintmask 0010010000000000
          -81 hlineto
          hintmask 0001000110000000
          -1 callsubr
          endchar
        </CharString>
        <CharString name="Tdotbelow">
          87 callsubr
          hstemhm
          121 85 92 115 -64 85 -9 85 205 85 hintmask 00110010
          -59 callsubr
          hintmask 01000100
          -32 callgsubr
          hintmask 00100011
          -1 callsubr
          hintmask 10001000
          -387 -629 -99 callsubr
        </CharString>
        <CharString name="Theta">
          302 -11 77 198 83 198 77 hstem
          110 85 528 85 cntrmask 11100000
          808 305 rmoveto
          173 29 -129 144 -196 hhcurveto
          -198 -176 222 callsubr
          198 176 147 169 28 hvcurveto
          -85 1 rmoveto
          -132 -22 -136 -108 -146 hhcurveto
          165 callsubr
          -44 -23 rmoveto
          8 45 rlineto
          24 4 4 25 -42 hhcurveto
          -13 -23 0 -30 -10 hvcurveto
          -282 hlineto
          29 -22 1 -14 -42 -4 -25 -24 -4 vhcurveto
          -8 -45 rlineto
          -24 -4 -4 -25 42 hhcurveto
          13 23 0 30 10 hvcurveto
          282 hlineto
          -29 22 -1 14 42 4 25 24 4 vhcurveto
          endchar
        </CharString>
        <CharString name="Thorn">
          127 0 77 52 77 220 76 32 77 hstem
          614 316 rmoveto
          98 16 -90 88 -143 hhcurveto
          -91 hlineto
          5 32 rlineto
          -20 callsubr
          72 callgsubr
          9 52 rlineto
          91 hlineto
          143 119 89 98 17 hvcurveto
          -83 hmoveto
          -60 -10 -89 -50 -101 hhcurveto
          -74 hlineto
          37 220 rlineto
          74 hlineto
          102 71 -50 -60 -10 hvcurveto
          endchar
        </CharString>
        <CharString name="Tlinebelow">
          268 callgsubr
          121 85 143 85 -9 85 205 85 hintmask 00110100
          -59 callsubr
          hintmask 01001000
          -32 callgsubr
          hintmask 00100110
          -1 callsubr
          hintmask 10000000
          -253 -642 -74 callsubr
        </CharString>
        <CharString name="U">
          -11 77 468 77 48 callgsubr
          hintmask 11011000
          -100 callgsubr
          hintmask 11100100
          -91 callgsubr
          endchar
        </CharString>
        <CharString name="U_uni032F">
          -192 -21 47 80 75 77 468 77 48 callgsubr
          hintmask 00110110
          -100 callgsubr
          hintmask 00111001
          -91 callgsubr
          hintmask 11000000
          -251 -746 rmoveto
          84 14 -111 274 callgsubr
          -113 3 callgsubr
        </CharString>
        <CharString name="Uacute">
          -11 77 468 77 63 -21 148 -20 48 callgsubr
          hintmask 11000110
          -100 callgsubr
          hintmask 11001001
          -91 callgsubr
          hintmask 00110000
          -164 186 -105 callgsubr
        </CharString>
        <CharString name="Ubreve">
          132 callsubr
          42 80 47 -20 48 callgsubr
          hintmask 11000110
          -100 callgsubr
          hintmask 11001001
          -91 callgsubr
          hintmask 00110000
          -99 169 rmoveto
          24 4 -11 15 -25 hhcurveto
          -30 -8 -20 -15 -6 hvcurveto
          -12 -6 -62 0 -37 hhcurveto
          158 callsubr
          endchar
        </CharString>
        <CharString name="Ucaron">
          132 callsubr
          149 -20 48 callgsubr
          hintmask 11001100
          -100 callgsubr
          hintmask 11010010
          -91 callgsubr
          hintmask 00100000
          -130 150 -98 callsubr
        </CharString>
        <CharString name="Ucircumflex">
          132 callsubr
          53 -21 48 callgsubr
          hintmask 11001100
          -100 callgsubr
          hintmask 11010010
          -91 callgsubr
          hintmask 00100000
          -136 110 -106 callgsubr
          endchar
        </CharString>
        <CharString name="Udblgrave">
          259 callsubr
          147 -20 48 callgsubr
          hintmask 11000110
          -100 callgsubr
          hintmask 11001001
          -91 callgsubr
          hintmask 00110000
          -116 127 -77 callgsubr
        </CharString>
        <CharString name="Udieresis">
          228 callsubr
          136 callsubr
          hintmask 1100111000000000
          -100 callgsubr
          hintmask 1101000010000000
          -91 callgsubr
          hintmask 0010010100000000
          -1 callgsubr
          endchar
        </CharString>
        <CharString name="Udieresisacute">
          -11 77 468 77 32 105 62 -21 148 -20 136 callsubr
          hintmask 1100001110000000
          -100 callgsubr
          hintmask 1100010000100000
          -91 callgsubr
          hintmask 0011100101000000
          -1 callgsubr
          -6 199 -105 callgsubr
        </CharString>
        <CharString name="Udieresiscaron">
          228 callsubr
          148 -20 136 callsubr
          hintmask 1100011100000000
          -100 callgsubr
          hintmask 1100100001000000
          -91 callgsubr
          hintmask 0011001010000000
          -1 callgsubr
          28 163 -98 callsubr
        </CharString>
        <CharString name="Udieresisgrave">
          -11 77 468 77 32 105 62 -21 148 -20 136 callsubr
          hintmask 1100001110000000
          -100 callgsubr
          hintmask 1100010000100000
          -91 callgsubr
          hintmask 0011100101000000
          -1 callgsubr
          -16 142 -81 callgsubr
        </CharString>
        <CharString name="Udotbelow">
          110 callsubr
          69 270 callgsubr
          9 115 102 85 0 85 hintmask 01101010
          -100 callgsubr
          hintmask 01110001
          -91 callgsubr
          hintmask 10000100
          -369 -709 -99 callsubr
        </CharString>
        <CharString name="Ugrave">
          -11 77 468 77 63 -21 148 -20 48 callgsubr
          hintmask 11000110
          -100 callgsubr
          hintmask 11001001
          -91 callgsubr
          hintmask 00110000
          -174 129 -81 callgsubr
        </CharString>
        <CharString name="Uhookabove">
          132 callsubr
          64 -21 84 72 13 72 128 callgsubr
          116 157 callgsubr
          -10 85 -50 72 -22 85 hintmask 1100001000010000
          -100 callgsubr
          hintmask 1100010000000100
          -91 callgsubr
          hintmask 0000100100000000
          -160 236 57 callsubr
          hintmask 0000000010000000
          -18 -3 10 -19 24 hhcurveto
          hintmask 0000000100000000
          174 callgsubr
          hintmask 0001100010001000
          61 callsubr
          hintmask 0000000000100000
          102 callgsubr
          rrcurveto
          hintmask 0010000001000000
          4 callgsubr
          hintmask 0001000000101000
          8 callsubr
        </CharString>
        <CharString name="Uhorn">
          132 callsubr
          97 -20 98 callgsubr
          hintmask 0110000010000000
          -11 callgsubr
          hintmask 0100000100000000
          108 callgsubr
          21 hhcurveto
          55 hlineto
          hintmask 1000010001000000
          13 callsubr
          hintmask 0100001000000000
          32 callsubr
          hintmask 0000100000000000
          -20 -18 -17 -19 -3 hvcurveto
          hintmask 0101000000000000
          108 callgsubr
          20 hhcurveto
          56 hlineto
          hintmask 1000010001000000
          14 callgsubr
          hintmask 0000000000100000
          131 callsubr
          endchar
        </CharString>
        <CharString name="Uhornacute">
          -26 callsubr
          -187 124 -105 callgsubr
        </CharString>
        <CharString name="Uhorndotbelow">
          110 callsubr
          69 165 callgsubr
          97 -20 180 callsubr
          -13 115 124 85 -84 84 -54 85 -31 85 hintmask 0011000000100000
          -11 callgsubr
          hintmask 0010000001000000
          108 callgsubr
          21 hhcurveto
          55 hlineto
          hintmask 0100001000010000
          13 callsubr
          hintmask 0010000100000000
          32 callsubr
          hintmask 0000010000000000
          -20 -18 -17 -19 -3 hvcurveto
          hintmask 0010100000000000
          108 callgsubr
          20 hhcurveto
          56 hlineto
          hintmask 0100001000010000
          14 callgsubr
          hintmask 0000000000001000
          131 callsubr
          hintmask 1000000010000000
          -385 -771 -99 callsubr
        </CharString>
        <CharString name="Uhorngrave">
          -26 callsubr
          -167 67 -81 callgsubr
        </CharString>
        <CharString name="Uhornhookabove">
          132 callsubr
          64 -21 54 -20 50 72 13 72 180 callsubr
          117 157 callgsubr
          -11 85 -84 84 -54 85 -80 72 -23 85 hintmask 010100000000000100000000
          -11 callgsubr
          hintmask 010000000000001000000000
          108 callgsubr
          21 hhcurveto
          55 hlineto
          hintmask 100000001000000010000000
          13 callsubr
          hintmask 010000000100000000000000
          32 callsubr
          hintmask 000000010000000000000000
          -20 -18 -17 -19 -3 hvcurveto
          hintmask 010000100000000000000000
          108 callgsubr
          20 hhcurveto
          56 hlineto
          hintmask 100000001000000010000000
          14 callgsubr
          hintmask 000000000000000000100000
          131 callsubr
          hintmask 000001000010000000000000
          -153 174 57 callsubr
          hintmask 000000000001000000000000
          -18 -3 10 -19 24 hhcurveto
          hintmask 000000000010000000000000
          174 callgsubr
          hintmask 000011000001000001000000
          61 callsubr
          hintmask 000000000000010000000000
          102 callgsubr
          rrcurveto
          hintmask 001000000000100000000000
          4 callgsubr
          hintmask 000010000000010001000000
          8 callsubr
        </CharString>
        <CharString name="Uhorntilde">
          -11 77 468 77 32 81 -68 81 -54 81 -67 80 98 callgsubr
          hintmask 0100000000010000
          -11 callgsubr
          hintmask 0100000000100000
          108 callgsubr
          21 hhcurveto
          55 hlineto
          hintmask 1000000010001000
          13 callsubr
          hintmask 0100000001000000
          32 callsubr
          hintmask 0000000100000000
          -20 -18 -17 -19 -3 hvcurveto
          hintmask 0100001000000000
          108 callgsubr
          20 hhcurveto
          56 hlineto
          hintmask 1000000010001000
          14 callgsubr
          hintmask 0000000000000100
          131 callsubr
          hintmask 0000010000000000
          -93 103 -59 callgsubr
        </CharString>
        <CharString name="Uhungarumlaut">
          259 callsubr
          147 -20 48 callgsubr
          hintmask 11000110
          -100 callgsubr
          hintmask 11001001
          -91 callgsubr
          hintmask 00110000
          -285 185 rmoveto
          -19 callsubr
          205 hmoveto
          -19 callsubr
          endchar
        </CharString>
        <CharString name="Umacron">
          132 callsubr
          52 79 48 callgsubr
          hintmask 11001100
          -100 callgsubr
          hintmask 11010010
          -91 callgsubr
          hintmask 00100000
          -93 130 -74 callsubr
        </CharString>
        <CharString name="Uogonek">
          153 callsubr
          32 77 0 270 callgsubr
          -56 75 -72 85 194 85 0 85 hintmask 0001100011000000
          805 572 -42 callgsubr
          -172 -93 callsubr
          -53 -319 rlineto
          -105 -18 -96 -44 -66 hhcurveto
          -70 -78 46 103 17 hvcurveto
          hintmask 0000101000000000
          53 319 -51 callsubr
          hintmask 0000110100000000
          -38 callsubr
          -18 -106 65 -82 95 -24 rlinecurve
          -29 -26 -24 -33 -6 -34 rrcurveto
          hintmask 0110000010000000
          160 callsubr
          241 callsubr
          hintmask 1001100100100000
          126 callgsubr
          5 35 22 32 29 20 128 6 119 92 20 122 54 325 rcurveline
          44 -44 callsubr
          endchar
        </CharString>
        <CharString name="Upsilon">
          302 0 77 477 68 hstemhm
          140 86 153 85 -46 85 250 85 hintmask 01101000
          838 487 rmoveto
          73 12 -64 62 -91 hhcurveto
          -98 -72 -77 -105 -44 hvcurveto
          97 -7 -41 85 -104 hhcurveto
          -91 -86 -62 -73 -12 hvcurveto
          -39 -6 31 0 12 hhcurveto
          38 7 20 21 4 hvcurveto
          36 6 40 29 48 hhcurveto
          112 1 -151 -91 -15 hvcurveto
          hintmask 10010000
          -39 -235 155 callgsubr
          hintmask 01001100
          39 235 rlineto
          97 16 52 145 109 hhcurveto
          45 35 -27 -39 -7 hvcurveto
          -20 -3 1 -20 38 hhcurveto
          12 31 0 39 6 hvcurveto
          endchar
        </CharString>
        <CharString name="Uring">
          132 callsubr
          12 48 38 48 48 callgsubr
          hintmask 11000110
          -100 callgsubr
          hintmask 11001001
          -91 callgsubr
          hintmask 00110000
          -241 118 rmoveto
          -14 -2 -27 -5 -21 hhcurveto
          -24 -22 6 13 2 hvcurveto
          13 2 27 6 -45 callsubr
          55 33 34 6 hvcurveto
          endchar
        </CharString>
        <CharString name="Utilde">
          -11 77 468 77 32 81 -68 81 -54 81 -67 80 48 callgsubr
          hintmask 1100000110000000
          -100 callgsubr
          hintmask 1100001001000000
          -91 callgsubr
          hintmask 0000010000000000
          -100 165 -59 callgsubr
        </CharString>
        <CharString name="V">
          13 -21 542 77 hstem
          823 572 -67 callsubr
          -149 150 callsubr
          275 callgsubr
          25 hlineto
          -252 -452 -103 452 rlineto
          25 hlineto
          19 30 -36 callgsubr
          38 7 -29 1 -20 hhcurveto
          -149 246 callgsubr
          -37 188 callsubr
          34 hlineto
          114 -501 rlineto
          -28 6 6 -13 42 hhcurveto
          19 hlineto
          27 20 2 38 20 hvcurveto
          281 502 rlineto
          34 201 callsubr
        </CharString>
        <CharString name="W">
          535 13 -21 542 77 hstem
          -78 callgsubr
          endchar
        </CharString>
        <CharString name="Wacute">
          535 13 -21 542 203 callgsubr
          hintmask 11000000
          -78 callgsubr
          hintmask 00110000
          -350 186 -105 callgsubr
        </CharString>
        <CharString name="Wcircumflex">
          535 13 -21 542 77 53 -21 hstemhm
          hintmask 11000000
          -78 callgsubr
          hintmask 00100000
          -322 110 -106 callgsubr
          endchar
        </CharString>
        <CharString name="Wdieresis">
          535 13 -21 542 77 32 105 hstemhm
          491 105 92 105 hintmask 11000000
          -78 callgsubr
          hintmask 00111000
          -518 89 callgsubr
        </CharString>
        <CharString name="Wgrave">
          535 13 -21 542 203 callgsubr
          hintmask 11000000
          -78 callgsubr
          hintmask 00110000
          -360 129 -81 callgsubr
        </CharString>
        <CharString name="X">
          -5 callgsubr
        </CharString>
        <CharString name="Xi">
          185 0 75 205 75 181 75 hstem
          106 84 vstem
          740 544 rmoveto
          3 18 203 callsubr
          -504 hlineto
          -39 -11 -9 -40 -6 hvcurveto
          -3 -18 rlineto
          -23 -4 -3 -26 41 hhcurveto
          37 8 19 22 3 hvcurveto
          431 hlineto
          -22 -3 2 -19 37 hhcurveto
          41 5 26 23 4 hvcurveto
          -77 -495 rmoveto
          4 23 rlineto
          23 4 3 25 -41 hhcurveto
          -37 -8 -17 -28 -4 hvcurveto
          -443 hlineto
          28 4 -2 17 -37 hhcurveto
          -41 -5 -25 -23 -4 hvcurveto
          -4 -23 rlineto
          -40 -6 7 -9 40 hhcurveto
          514 hlineto
          40 10 11 38 6 hvcurveto
          -60 234 rmoveto
          12 69 rlineto
          24 4 3 24 -41 hhcurveto
          -37 -8 -17 -28 -6 hvcurveto
          -243 hlineto
          28 4 -2 17 -37 hhcurveto
          -41 -5 -24 -24 -4 hvcurveto
          -12 -69 175 callsubr
          41 hhcurveto
          37 8 18 28 6 hvcurveto
          243 hlineto
          -28 -4 2 -18 37 hhcurveto
          41 -14 callsubr
          endchar
        </CharString>
        <CharString name="Y">
          211 callgsubr
          349 85 -57 85 -29 85 hintmask 01001000
          -72 callsubr
          hintmask 00010000
          218 callgsubr
          hintmask 10100000
          17 callgsubr
          hintmask 10001000
          41 callgsubr
          hintmask 10100000
          -43 hlineto
          hintmask 01010000
          45 callgsubr
          endchar
        </CharString>
        <CharString name="Yacute">
          142 callsubr
          349 85 -57 85 -29 85 hintmask 01000010
          -72 callsubr
          hintmask 00000100
          218 callgsubr
          hintmask 10001000
          17 callgsubr
          hintmask 10000010
          41 callgsubr
          hintmask 10001000
          -43 hlineto
          hintmask 01000100
          45 callgsubr
          hintmask 00110000
          -203 186 -105 callgsubr
        </CharString>
        <CharString name="Ycircumflex">
          78 callsubr
          53 -21 hstemhm
          349 85 -57 85 -29 85 hintmask 01000100
          -72 callsubr
          hintmask 00001000
          218 callgsubr
          hintmask 10010000
          17 callgsubr
          hintmask 10000100
          41 callgsubr
          hintmask 10010000
          -43 hlineto
          hintmask 01001000
          45 callgsubr
          hintmask 00100000
          -175 110 -106 callgsubr
          endchar
        </CharString>
        <CharString name="Ydieresis">
          227 callgsubr
          hstemhm
          345 105 -101 85 -57 85 -29 85 24 105 hintmask 01000010
          -72 callsubr
          hintmask 00000100
          218 callgsubr
          hintmask 10001000
          17 callgsubr
          hintmask 10000010
          41 callgsubr
          hintmask 10001000
          -43 hlineto
          hintmask 01000100
          45 callgsubr
          hintmask 00110001
          -371 89 callgsubr
        </CharString>
        <CharString name="Ydotbelow">
          87 callsubr
          hstemhm
          298 115 -64 85 -57 85 -29 85 hintmask 00100010
          -72 callsubr
          hintmask 00000100
          218 callgsubr
          hintmask 01001000
          17 callgsubr
          hintmask 01000010
          41 callgsubr
          hintmask 01001000
          -43 hlineto
          hintmask 00100100
          45 callgsubr
          hintmask 10010000
          -408 -709 -99 callsubr
        </CharString>
        <CharString name="Ygrave">
          142 callsubr
          349 85 -57 85 -29 85 hintmask 01000010
          -72 callsubr
          hintmask 00000100
          218 callgsubr
          hintmask 10001000
          17 callgsubr
          hintmask 10000010
          41 callgsubr
          hintmask 10001000
          -43 hlineto
          hintmask 01000100
          45 callgsubr
          hintmask 00110000
          -213 129 -81 callgsubr
        </CharString>
        <CharString name="Yhookabove">
          78 callsubr
          64 121 callgsubr
          349 85 -57 85 -56 74 -47 85 -81 72 -58 72 -69 72 25 72 hintmask 0100000010000000
          -72 callsubr
          hintmask 0000001000000000
          218 callgsubr
          hintmask 1000010000000000
          17 callgsubr
          hintmask 1000000010000000
          41 callgsubr
          hintmask 1000010000000000
          -43 hlineto
          hintmask 0100001000000000
          45 callgsubr
          hintmask 0000100100000000
          -198 236 57 callsubr
          hintmask 0000000001000000
          -18 -3 10 -19 24 hhcurveto
          hintmask 0000000100000000
          174 callgsubr
          hintmask 0001100001001000
          61 callsubr
          hintmask 0000000000010000
          102 callgsubr
          rrcurveto
          hintmask 0010000000100000
          4 callgsubr
          hintmask 0001000000011000
          8 callsubr
        </CharString>
        <CharString name="Ytilde">
          86 callgsubr
          349 85 -57 85 -29 85 hintmask 0100000010000000
          -72 callsubr
          hintmask 0000000100000000
          218 callgsubr
          hintmask 1000001000000000
          17 callgsubr
          hintmask 1000000010000000
          41 callgsubr
          hintmask 1000001000000000
          -43 hlineto
          hintmask 0100000100000000
          45 callgsubr
          hintmask 0000010000000000
          -139 165 52 callsubr
          hintmask 0000100000000000
          -13 -8 -5 -8 -10 hvcurveto
          hintmask 0010000000000000
          -17 callsubr
          hintmask 0000010100000000
          14 -12 1 callgsubr
          hintmask 0000100000000000
          -17 callgsubr
          hintmask 0010000000000000
          112 callsubr
          hintmask 0001000000000000
          54 callgsubr
          hintmask 0000010000000000
          21 callsubr
          hintmask 0010000000000000
          -62 callsubr
          hintmask 0001000000000000
          23 16 35 55 callsubr
        </CharString>
        <CharString name="Z">
          196 callgsubr
          263 callgsubr
          hintmask 11001000
          -21 callgsubr
          hintmask 01010000
          -16 callgsubr
          endchar
        </CharString>
        <CharString name="Zacute">
          196 callgsubr
          63 129 callgsubr
          263 callgsubr
          hintmask 11000010
          -21 callgsubr
          hintmask 01000100
          -16 callgsubr
          hintmask 00011000
          -39 709 -105 callgsubr
        </CharString>
        <CharString name="Zcaron">
          196 callgsubr
          149 -20 263 callgsubr
          hintmask 11000100
          -21 callgsubr
          hintmask 01001000
          -16 callgsubr
          hintmask 00010000
          -5 673 -98 callsubr
        </CharString>
        <CharString name="Zdotaccent">
          196 callgsubr
          43 114 hstemhm
          153 85 144 115 32 84 hintmask 11000010
          -21 callgsubr
          hintmask 01001000
          -16 callgsubr
          hintmask 00010100
          -101 662 -66 callgsubr
        </CharString>
        <CharString name="Zdotbelow">
          127 153 callgsubr
          415 77 -35 77 hstemhm
          153 85 2 115 174 84 hintmask 01100010
          598 49 rmoveto
          15 89 166 callsubr
          -4 96 callgsubr
          -10 -61 rlineto
          -327 hlineto
          467 456 15 14 2 4 3 18 rlinecurve
          hintmask 00010000
          41 7 -25 1 -23 hhcurveto
          -416 hlineto
          -39 -12 -9 -40 -6 hvcurveto
          hintmask 00101000
          -5 callsubr
          hintmask 01010000
          7 42 rlineto
          306 hlineto
          -467 -456 -15 -14 -2 -4 -3 -18 rlinecurve
          -41 -7 26 -1 22 hhcurveto
          438 hlineto
          39 10 11 38 6 hvcurveto
          hintmask 10000100
          -243 -186 -99 callsubr
        </CharString>
        <CharString name="Zeta">
          196 callgsubr
          263 callgsubr
          hintmask 11001000
          -21 callgsubr
          hintmask 01010000
          -16 callgsubr
          endchar
        </CharString>
        <CharString name="a">
          58 callsubr
          -106 callsubr
          endchar
        </CharString>
        <CharString name="aacute">
          58 callsubr
          53 129 callgsubr
          -106 callsubr
          hintmask 00011000
          103 371 rmoveto
          -103 callsubr
        </CharString>
        <CharString name="abreve">
          255 callsubr
          -20 -106 callsubr
          hintmask 00011000
          38 callsubr
          endchar
        </CharString>
        <CharString name="abreveacute">
          181 callsubr
          215 -20 -106 callsubr
          hintmask 00011000
          38 callsubr
          -41 164 48 callsubr
        </CharString>
        <CharString name="abrevedotbelow">
          -5 179 callgsubr
          80 callgsubr
          43 80 47 -20 -26 callgsubr
          hintmask 01001100
          -15 -34 -39 0 -7 hhcurveto
          -52 -30 29 33 5 hvcurveto
          7 40 64 33 140 5 rrcurveto
          38 callsubr
          hintmask 10000010
          -243 -713 -99 callsubr
        </CharString>
        <CharString name="abrevegrave">
          255 callsubr
          -20 -106 callsubr
          hintmask 00011000
          38 callsubr
          -50 107 -11 callsubr
          15 -7 12 -7 -3 -22 rlinecurve
          endchar
        </CharString>
        <CharString name="abrevehookabove">
          181 callsubr
          131 72 13 72 hstemhm
          249 72 -45 171 callsubr
          -25 callsubr
          hintmask 1000000100000000
          -15 -34 -39 0 -7 hhcurveto
          -52 -30 29 33 5 hvcurveto
          7 40 64 33 140 5 rrcurveto
          hintmask 0001000100000000
          170 365 200 callgsubr
          hintmask 0001011000000000
          123 callsubr
          hintmask 0000000100000000
          -53 -56 -32 -55 -9 hvcurveto
          hintmask 0000110010010000
          -18 -3 10 -19 24 hhcurveto
          18 21 13 28 5 hvcurveto
          6 4 10 145 callsubr
          16 246 callsubr
          hintmask 0000001000100000
          102 callgsubr
          -3 -17 rcurveline
          -20 -3 14 -16 19 hhcurveto
          hintmask 0000000001000000
          21 18 16 20 3 hvcurveto
          hintmask 0000100000110000
          207 callsubr
        </CharString>
        <CharString name="abrevetilde">
          -5 -6 77 -71 77 291 77 43 248 callsubr
          -25 callsubr
          hintmask 1000000000000000
          -15 -34 -39 0 -7 hhcurveto
          -52 -30 29 33 5 hvcurveto
          7 40 64 33 140 5 rrcurveto
          hintmask 0001100010000000
          38 callsubr
          28 173 rmoveto
          20 3 184 callsubr
          -7 8 10 -9 hvcurveto
          hintmask 0000100010000000
          14 -11 1 callgsubr
          -17 callgsubr
          hintmask 0000010000000000
          112 callsubr
          hintmask 0000001000000000
          54 callgsubr
          hintmask 0000000010000000
          250 callgsubr
          hintmask 0000010000000000
          -62 callsubr
          hintmask 0000001000000000
          23 16 34 25 4 19 rrcurveto
          endchar
        </CharString>
        <CharString name="acaron">
          58 callsubr
          180 -20 -41 callgsubr
          144 375 -87 callsubr
        </CharString>
        <CharString name="acircumflex">
          58 callsubr
          53 -21 -41 callgsubr
          133 305 -94 callgsubr
          endchar
        </CharString>
        <CharString name="acircumflexacute">
          215 callgsubr
          284 -20 -106 callsubr
          hintmask 00011000
          132 306 -93 callgsubr
          -6 202 73 callgsubr
          -2 4 135 callsubr
          6 16 3 13 rlinecurve
          endchar
        </CharString>
        <CharString name="acircumflexdotbelow">
          -5 179 callgsubr
          80 callgsubr
          53 -21 -26 callgsubr
          hintmask 01001000
          -15 -34 -39 0 -7 hhcurveto
          -52 -30 29 33 5 hvcurveto
          7 40 64 33 140 5 rrcurveto
          133 305 -94 callgsubr
          hintmask 10000100
          -206 -653 -99 callsubr
        </CharString>
        <CharString name="acircumflexgrave">
          215 callgsubr
          -41 callgsubr
          132 306 -93 callgsubr
          -16 145 rmoveto
          -10 -2 -16 137 callgsubr
          -2 16 3 68 callsubr
        </CharString>
        <CharString name="acircumflexhookabove">
          215 callgsubr
          200 167 callgsubr
          426 72 -69 72 -107 callsubr
          hintmask 00011101
          132 306 -93 callgsubr
          103 231 -2 callsubr
          rrcurveto
          hintmask 00000010
          -3 220 callsubr
          3 17 1 -6 callgsubr
        </CharString>
        <CharString name="acircumflextilde">
          215 callgsubr
          115 81 -40 -21 callsubr
          -25 callsubr
          hintmask 1000000000000000
          -15 -34 -39 0 -7 hhcurveto
          -52 -30 29 33 5 hvcurveto
          7 40 64 33 140 5 rrcurveto
          hintmask 0001100010000000
          132 306 -7 callsubr
        </CharString>
        <CharString name="acute">
          10 484 129 callgsubr
          hstem
          470 568 rmoveto
          -103 callsubr
        </CharString>
        <CharString name="acute.cap">
          10 493 129 callgsubr
          hstem
          471 577 -105 callgsubr
        </CharString>
        <CharString name="acute.dup">
          10 484 129 callgsubr
          hstem
          470 568 rmoveto
          -103 callsubr
        </CharString>
        <CharString name="acute.ts1">
          10 485 234 callsubr
          21 -20 hstemhm
          hintmask 00100000
          509 568 rmoveto
          22 3 -15 22 -25 hhcurveto
          hintmask 11000000
          -6 -1 -4 -1 -25 -9 -13 -5 rlinecurve
          -46 -19 -100 -40 -4 -24 rrcurveto
          -26 -5 15 -23 27 hhcurveto
          12 2 24 10 17 8 83 34 rcurveline
          25 11 33 14 4 25 rrcurveto
          endchar
        </CharString>
        <CharString name="adblgrave">
          215 callgsubr
          147 -20 -106 callsubr
          hintmask 00011000
          151 313 rmoveto
          -83 callgsubr
        </CharString>
        <CharString name="adieresis">
          170 callgsubr
          105 hstemhm
          212 178 callsubr
          -107 callsubr
          hintmask 00011010
          -45 340 -84 callsubr
          hintmask 00010100
          -29 -5 20 -23 28 hhcurveto
          hintmask 00000010
          125 callgsubr
        </CharString>
        <CharString name="adotbelow">
          -5 179 callgsubr
          80 callgsubr
          -26 callgsubr
          hintmask 01000000
          -15 -34 -39 0 -7 hhcurveto
          -52 -30 29 33 5 hvcurveto
          7 40 64 33 140 5 rrcurveto
          hintmask 10001000
          -73 -348 -99 callsubr
        </CharString>
        <CharString name="ae">
          -20 callgsubr
        </CharString>
        <CharString name="ae.dup">
          -20 callgsubr
        </CharString>
        <CharString name="aeacute">
          -6 77 115 75 107 261 callsubr
          75 80 -16 104 hintmask 11100010
          746 -6 callsubr
          -36 -62 -10 -62 -67 hvcurveto
          71 -40 -89 1 -27 hhcurveto
          -44 -103 -3 -77 -13 hvcurveto
          -35 -6 22 -18 28 hhcurveto
          18 34 11 42 8 hvcurveto
          0 2 1 6 1 vhcurveto
          1 14 9 0 13 hhcurveto
          70 36 -30 -58 -9 hvcurveto
          -4 -21 rlineto
          hintmask 11100100
          -73 -3 -213 -15 -19 -118 rrcurveto
          -66 -11 51 -63 102 hhcurveto
          47 96 11 60 48 hvcurveto
          -59 46 65 -12 41 hhcurveto
          120 62 94 27 4 hvcurveto
          -57 146 rmoveto
          -215 hlineto
          65 27 59 42 52 hhcurveto
          61 18 -51 -56 -2 hvcurveto
          -330 -129 rmoveto
          -2 -12 -3 -21 -39 -14 rrcurveto
          -13 -34 -36 -1 -11 hhcurveto
          -51 -33 22 31 5 hvcurveto
          4 25 69 18 14 3 41 9 38 2 44 2 rrcurveto
          hintmask 00011000
          224 399 rmoveto
          -103 callsubr
        </CharString>
        <CharString name="agrave">
          58 callsubr
          53 129 callgsubr
          -106 callsubr
          hintmask 00011000
          92 314 -74 callgsubr
        </CharString>
        <CharString name="ahookabove">
          58 callsubr
          7 121 callgsubr
          290 72 -70 72 hintmask 01100000
          513 39 rmoveto
          36 6 -29 2 -18 hhcurveto
          -28 -11 2 3 -6 hvcurveto
          34 204 rlineto
          74 12 -41 85 -141 hhcurveto
          -44 -103 -3 -77 -13 hvcurveto
          -35 -6 22 -18 28 hhcurveto
          19 33 11 42 8 hvcurveto
          0 24 3 20 62 40 -24 -58 -5 vhcurveto
          -177 -4 -116 -59 -15 -90 rrcurveto
          hintmask 10000000
          -72 -12 53 -67 100 hhcurveto
          61 50 17 17 31 hvcurveto
          hintmask 01000000
          -24 18 40 -4 41 hhcurveto
          32 24 2 37 7 -31 callgsubr
          hintmask 10000010
          -15 -34 -39 0 -7 hhcurveto
          -52 -30 29 33 5 hvcurveto
          7 40 64 33 140 5 rrcurveto
          hintmask 00001101
          99 374 rmoveto
          -67 callgsubr
          4 hvcurveto
          -49 -24 -41 -32 -8 -47 rrcurveto
          hintmask 00010010
          -2 220 callsubr
          2 17 2 -6 callgsubr
        </CharString>
        <CharString name="amacron">
          58 callsubr
          67 79 -41 callgsubr
          178 340 -34 callsubr
        </CharString>
        <CharString name="ampersand">
          302 -11 77 0 77 216 77 -39 77 71 77 hstemhm
          70 79 104 69 126 75 hintmask 00100000
          828 397 -42 callgsubr
          -206 hlineto
          hintmask 00010000
          196 callsubr
          hintmask 00101001
          -36 -6 30 -2 18 hhcurveto
          58 hlineto
          -77 -99 -41 -53 -66 -55 -17 18 -50 57 -27 70 107 70 57 53 10 60 rrcurveto
          65 11 -31 77 -82 hhcurveto
          hintmask 01010110
          -63 -88 -49 -99 -17 hvcurveto
          -8 -47 2 -53 12 -49 -110 -69 rcurveline
          -34 -22 -36 -39 -9 -52 rrcurveto
          hintmask 10100000
          -90 -15 77 -64 105 hhcurveto
          67 66 25 40 60 hvcurveto
          -52 68 55 -13 49 hhcurveto
          98 66 66 57 10 hvcurveto
          6 40 -36 0 0 vvcurveto
          -30 -9 -27 -13 -3 hvcurveto
          -33 -11 -42 -13 -36 hhcurveto
          -34 -44 11 29 -41 hvcurveto
          12 11 21 20 26 29 19 21 21 23 19 23 99 126 rcurveline
          62 hlineto
          hintmask 01011111
          -27 callgsubr
          -380 83 rmoveto
          -6 -34 -71 -48 -47 -30 -11 54 8 48 1 4 rrcurveto
          55 9 50 16 24 hhcurveto
          38 9 -39 -26 -4 hvcurveto
          -73 -375 rmoveto
          -15 -25 -48 -24 -56 hhcurveto
          -60 -44 33 46 7 hvcurveto
          6 37 38 23 85 50 14 -35 19 -30 14 -21 17 -25 22 -26 11 -13 rrcurveto
          endchar
        </CharString>
        <CharString name="anglearc">
          302 -22 -21 698 -20 hstemhm
          512 86 -81 86 -1 86 -85 86 hintmask 00001000
          764 43 rmoveto
          3 17 -8 16 -14 6 -114 52 rcurveline
          28 55 19 59 10 58 rrcurveto
          hintmask 11100100
          10 58 0 59 -9 55 130 52 rcurveline
          16 6 14 16 3 17 rrcurveto
          23 4 -17 20 -23 hhcurveto
          -6 -6 -1 -3 -6 hvcurveto
          -130 -52 -10 29 -13 27 -16 27 rlinecurve
          9 -7 -11 7 -13 hhcurveto
          -25 -21 -20 -23 -4 hvcurveto
          -2 -10 2 -10 5 -7 12 -19 11 -21 8 -23 -441 -177 rcurveline
          -16 -6 -14 -16 -3 -17 -3 -17 9 -16 14 -6 382 -177 rcurveline
          -16 -23 -17 -21 -19 -19 -8 -7 -4 -10 -2 -10 rrcurveto
          -23 -4 15 -20 25 hhcurveto
          hintmask 00010000
          13 13 6 10 9 hvcurveto
          26 27 22 27 19 29 114 -52 rcurveline
          -3 4 6 -1 6 hhcurveto
          23 23 20 23 4 hvcurveto
          -162 263 rmoveto
          -8 -47 -16 -47 -21 -44 -296 138 rcurveline
          342 138 rlineto
          hintmask 00001000
          7 -44 0 -47 -8 -47 rrcurveto
          endchar
        </CharString>
        <CharString name="angleleft">
          -107 197 callsubr
          347 -39 rmoveto
          1 6 -5 26 -7 25 -85 288 rcurveline
          181 287 16 25 13 26 1 6 rlinecurve
          22 4 -16 20 -23 hhcurveto
          -26 -15 -23 -18 -11 hvcurveto
          -200 -317 rlineto
          0 -13 -17 -2 -12 vhcurveto
          -2 -14 8 -19 0 vvcurveto
          93 -312 rlineto
          -18 5 8 -23 26 hhcurveto
          23 23 20 22 3 hvcurveto
          endchar
        </CharString>
        <CharString name="angleright">
          -107 197 callsubr
          348 305 rmoveto
          2 12 -7 17 0 vvcurveto
          -94 317 rlineto
          18 -5 -9 23 -26 hhcurveto
          -23 -22 -20 -22 -4 hvcurveto
          -1 -6 5 -26 8 -25 85 -287 rcurveline
          -181 -288 -15 -25 -15 -26 -1 -6 rlinecurve
          -22 -3 15 -20 23 hhcurveto
          26 16 23 18 11 hvcurveto
          197 312 rlineto
          0 16 19 2 14 vhcurveto
          endchar
        </CharString>
        <CharString name="aogonek">
          -5 -197 70 121 80 callgsubr
          -13 callsubr
          endchar
        </CharString>
</ttFont>
